<svg version="1.1" id="Layer_1" xmlns="http://www.w3.org/2000/svg" xmlns:xlink="http://www.w3.org/1999/xlink" x="0px" y="0px"
	 width="100%" viewBox="0 0 763 448" enable-background="new 0 0 763 448" xml:space="preserve">
<path fill="#F97316" opacity="1.000000" stroke="none" 
	d="
M485.000000,449.000000 
	C323.333344,449.000000 162.166672,449.000000 1.000000,449.000000 
	C1.000000,299.666656 1.000000,150.333328 1.000000,1.000000 
	C255.333328,1.000000 509.666656,1.000000 764.000000,1.000000 
	C764.000000,150.333328 764.000000,299.666656 764.000000,449.000000 
	C671.166687,449.000000 578.333313,449.000000 485.000000,449.000000 
M104.874283,416.315155 
	C103.892387,417.557892 102.910500,418.800659 101.246407,419.990448 
	C100.267761,419.951202 99.288742,419.870880 98.310547,419.880066 
	C94.917709,419.911896 93.017967,421.805176 93.089371,425.032654 
	C93.159836,428.217804 95.118332,430.090759 98.464607,430.124573 
	C99.604813,430.136078 100.746414,430.008270 102.538567,429.850037 
	C103.366516,429.562286 104.194466,429.274567 105.281563,428.525726 
	C105.379448,424.409882 105.477333,420.294006 104.874283,416.315155 
M146.764114,394.284546 
	C150.464294,396.522583 149.107315,399.335846 147.249222,402.006073 
	C148.729431,402.259644 149.782013,402.439941 150.845123,402.622070 
	C150.845123,399.394562 150.845123,396.317261 150.845123,392.991211 
	C149.058777,393.078583 147.588669,393.150452 145.587463,392.817596 
	C142.045425,391.727600 139.673538,393.282654 138.777298,396.534149 
	C138.358963,398.051849 139.243042,399.928589 139.536789,401.642578 
	C140.104492,401.638702 140.672211,401.634827 141.239914,401.630951 
	C140.571777,397.389496 142.114853,394.751831 146.764114,394.284546 
M67.702766,426.256195 
	C66.883736,423.074615 68.463943,421.395630 71.392860,421.174652 
	C76.751183,420.770386 76.180984,424.863708 75.845100,429.417450 
	C78.817039,425.505127 78.734406,422.664490 75.647087,420.845612 
	C72.673225,419.093536 69.076309,418.796875 66.742447,422.001465 
	C65.312111,423.965424 64.537926,426.668304 68.083710,428.455383 
	C68.397072,428.652252 68.710426,428.849121 69.023788,429.045990 
	C68.715157,428.372528 68.406525,427.699066 67.702766,426.256195 
M181.083664,401.455383 
	C181.397034,401.652283 181.710419,401.849152 182.023804,402.046051 
	C181.715164,401.372559 181.406525,400.699097 180.701797,399.250580 
	C179.888748,396.065918 181.476654,394.399261 184.403946,394.175354 
	C189.779190,393.764221 189.153656,397.889709 188.855270,402.403656 
	C191.819077,398.501099 191.732742,395.659882 188.643860,393.843414 
	C185.670029,392.094604 182.073669,391.797455 179.741669,395.002686 
	C178.312943,396.966370 177.537903,399.669128 181.083664,401.455383 
M57.358356,393.638397 
	C53.666359,391.640900 51.260952,393.757507 49.771992,396.620941 
	C49.154934,397.807617 50.229221,399.873779 50.534325,401.539978 
	C51.071835,401.536926 51.609348,401.533875 52.146862,401.530853 
	C51.663090,396.848724 52.838474,393.841553 58.776234,395.186707 
	C58.929855,398.565094 59.806614,402.171417 58.851875,405.200439 
	C58.509472,406.286804 53.749268,405.980682 51.005344,406.310089 
	C53.437946,407.241180 56.670071,408.449432 58.671352,407.371826 
	C64.606354,404.175995 60.971355,398.273682 62.125904,393.359711 
	C60.325829,393.615173 59.093857,393.790039 57.358356,393.638397 
M35.061466,429.052917 
	C38.170803,425.507843 35.520023,424.158752 32.678455,423.048309 
	C30.116653,422.047211 27.472130,421.257782 24.240221,420.163849 
	C29.238489,414.656494 33.044121,419.085968 37.590717,420.196350 
	C34.312271,416.151581 30.713892,415.222595 26.794916,416.214417 
	C25.504539,416.540985 23.822502,418.267609 23.721107,419.472076 
	C23.629332,420.562317 25.223484,422.255249 26.475843,422.889709 
	C28.348818,423.838593 30.623558,423.954376 32.635975,424.678589 
	C34.996315,425.528015 35.405422,426.900238 32.320694,428.653931 
	C29.528612,428.111969 26.736528,427.570007 22.927885,426.830750 
	C26.988375,430.051392 30.431196,431.079559 35.061466,429.052917 
M116.149414,419.970032 
	C115.318329,419.943237 114.486061,419.874054 113.656364,419.897125 
	C110.266319,419.991547 108.173546,421.840973 108.291679,425.127472 
	C108.408203,428.369049 110.557167,430.167999 113.955811,430.106018 
	C114.953079,430.087830 115.949394,430.017670 117.541550,429.854553 
	C120.989288,426.418365 120.798943,423.015259 116.149414,419.970032 
M242.200150,251.619583 
	C255.537964,256.919525 269.048859,261.493866 283.516998,262.645660 
	C291.518890,263.282715 299.187439,262.471252 306.234283,258.456787 
	C318.161865,251.661926 322.013245,233.964737 313.551178,224.320465 
	C310.732208,225.833054 307.862823,227.372681 304.815277,229.007919 
	C305.562042,230.840118 306.205261,232.180511 306.662445,233.581604 
	C308.518982,239.271103 306.505707,245.597473 301.581573,248.484421 
	C293.404602,253.278442 284.886230,251.818283 278.357666,250.429474 
	C286.531586,241.443634 295.346527,232.163193 303.668549,222.459976 
	C309.202393,216.007690 313.852692,208.859192 315.686249,200.290009 
	C318.965729,184.963608 306.193665,170.721878 290.542053,172.288651 
	C290.542053,175.669785 290.542053,179.050919 290.542053,182.354172 
	C302.756226,184.526016 307.833466,190.900192 304.284546,200.831955 
	C302.078003,207.007111 297.913910,212.482819 294.628418,218.272446 
	C291.637817,209.330215 290.063995,201.033752 288.010956,192.857620 
	C285.192139,181.631897 280.973206,170.883728 273.557129,161.872467 
	C261.866760,147.667633 240.601700,150.148346 233.464050,166.553757 
	C236.378250,168.284164 239.325439,170.034149 242.220200,171.753006 
	C249.136353,163.316864 256.688568,161.383606 263.061859,166.388977 
	C269.359497,171.334915 272.104431,178.326126 274.312439,186.585388 
	C268.898163,184.732864 264.290619,182.980515 259.579102,181.577164 
	C245.185135,177.289841 230.708603,173.130966 215.448212,175.956161 
	C194.431290,179.847015 192.301926,201.676392 200.252197,212.764099 
	C203.180679,211.156067 206.148834,209.526260 209.035126,207.941406 
	C204.742615,195.879364 207.466034,188.481857 217.767136,186.499771 
	C224.169693,185.267838 231.002335,186.271011 238.841156,186.271011 
	C229.840759,194.944351 221.945068,202.060410 214.635559,209.734756 
	C207.244446,217.494812 201.094315,226.198959 198.608902,236.943085 
	C195.020935,252.453568 207.542419,266.528778 223.768494,264.848663 
	C223.768494,261.475525 223.768494,258.066620 223.768494,254.500641 
	C222.260605,254.311935 220.952606,254.190918 219.659409,253.979263 
	C212.975510,252.885406 208.336716,247.296692 208.908279,240.550903 
	C209.645523,231.849518 214.789780,225.557281 220.921921,218.949814 
	C221.734818,223.258514 222.358704,226.684601 223.029694,230.101425 
	C226.026474,245.361664 229.697388,260.404297 239.092972,273.248932 
	C250.934708,289.437714 270.384094,288.269501 280.813904,270.493469 
	C277.816437,268.799133 274.819397,267.105042 271.706421,265.345398 
	C271.024689,266.145935 270.493469,266.766998 269.965149,267.390503 
	C262.933075,275.689453 253.762390,275.617706 247.448029,266.656708 
	C244.438599,262.385895 242.646378,257.257324 240.920319,251.986725 
	C241.117676,251.800415 241.315018,251.614120 242.200150,251.619583 
M702.498230,435.996185 
	C706.993591,435.990845 711.508606,436.250824 715.979858,435.919922 
	C723.289795,435.378998 729.595886,432.617065 733.442078,425.977234 
	C742.855896,409.725739 732.664490,392.102722 713.849670,392.012512 
	C704.859253,391.969391 695.868408,392.003815 686.877747,392.003876 
	C643.256409,392.004242 599.635071,391.992737 556.013733,392.016327 
	C548.056152,392.020630 541.241577,394.659546 536.816467,401.597321 
	C531.810852,409.445190 531.565552,417.572937 536.371826,425.665619 
	C540.822632,433.159973 547.807739,435.977661 556.150085,435.982178 
	C604.599731,436.008453 653.049377,435.995697 702.498230,435.996185 
M424.105408,238.143021 
	C427.421631,257.862549 438.706909,268.373322 458.912140,270.561127 
	C475.130463,272.317169 491.763123,263.893219 497.405945,249.930923 
	C491.642365,250.879486 485.673676,250.277023 481.790649,252.837540 
	C474.187775,257.850952 466.420288,259.905945 457.720978,258.725525 
	C450.871307,257.796143 444.946594,254.810532 441.434418,248.453644 
	C438.128906,242.470764 440.591919,238.227753 447.401733,238.089966 
	C453.232666,237.971970 459.067810,238.062561 464.901093,238.062271 
	C476.520599,238.061707 488.140106,238.062103 499.689697,238.062103 
	C502.814667,215.252640 485.986267,195.682068 463.185120,195.069412 
	C444.669067,194.571915 429.768463,204.527588 425.554535,220.903381 
	C424.210175,226.127762 424.487000,231.769318 424.105408,238.143021 
M562.404907,226.096954 
	C565.808044,216.574234 569.211243,207.051514 572.826355,196.935776 
	C569.345093,196.935776 566.508118,197.194641 563.738647,196.872589 
	C559.973755,196.434799 558.151123,197.784805 556.926941,201.457199 
	C553.453430,211.877136 549.553467,222.155167 545.800903,232.481644 
	C544.668640,235.597412 543.894043,239.125839 539.454529,239.022049 
	C535.039246,238.918854 534.408630,235.294952 533.303467,232.213104 
	C529.483154,221.559509 525.794006,210.857773 521.840393,200.254364 
	C521.338440,198.908081 519.655457,197.243179 518.362488,197.094757 
	C514.648193,196.668411 510.853241,196.944427 506.499115,196.944427 
	C507.286804,199.357010 507.805695,201.083084 508.410706,202.778442 
	C515.067810,221.432922 521.738281,240.082581 528.405090,258.733582 
	C532.127075,269.146210 532.128723,268.988617 543.036011,269.104462 
	C546.366150,269.139832 547.598633,267.862854 548.601501,264.948303 
	C552.987976,252.200424 557.607056,239.532578 562.404907,226.096954 
M394.219604,247.501831 
	C394.220947,242.347961 394.113464,237.191269 394.246674,232.040817 
	C394.513092,221.741226 399.902679,214.188965 408.742737,211.662598 
	C410.747864,211.089569 412.853394,210.867722 414.961548,210.475143 
	C414.961548,205.975052 414.961548,201.721832 414.961548,196.844543 
	C411.435944,197.043625 408.090393,196.809662 404.938660,197.482941 
	C390.481476,200.571335 380.585144,212.062576 380.019226,227.157730 
	C379.521301,240.439270 379.847015,253.751923 379.844055,267.050842 
	C379.843933,267.641998 380.192139,268.233215 380.334320,268.685181 
	C385.026917,268.685181 389.438660,268.685181 394.219635,268.685181 
	C394.219635,261.748718 394.219635,255.124847 394.219604,247.501831 
M135.765961,394.677582 
	C133.557602,394.347992 131.356293,393.947601 129.137146,393.726105 
	C128.328064,393.645416 127.370255,394.319336 126.660820,394.090149 
	C119.995583,391.936951 118.379295,393.187775 118.569679,398.624542 
	C119.240097,397.864990 120.666550,394.745544 122.376793,394.581329 
	C128.552475,393.988281 124.475761,400.520844 127.620506,403.343567 
	C127.794838,401.080780 127.479935,399.293884 128.148163,398.024506 
	C128.932388,396.534790 130.571060,395.494934 131.839142,394.259949 
	C132.848541,395.562408 134.204041,396.733398 134.763626,398.206726 
	C135.258606,399.509949 134.867325,401.149780 134.867325,402.641022 
	C135.266068,402.640198 135.664810,402.639374 136.063553,402.638550 
	C136.063553,400.230316 136.063553,397.822113 135.765961,394.677582 
M151.645554,418.050873 
	C154.793167,418.050873 157.940781,418.050873 161.088348,418.050873 
	C158.449066,415.177551 154.724075,415.132355 151.136581,416.525513 
	C147.803680,417.819824 146.689865,420.919464 147.378677,424.369904 
	C148.072128,427.843506 150.276245,429.897949 153.930145,430.102264 
	C157.178497,430.283966 160.211533,430.006256 161.292847,426.059967 
	C157.854279,428.663055 154.248108,430.500366 150.662308,426.891510 
	C148.055176,424.267670 148.455078,421.177979 151.645554,418.050873 
M139.728668,423.226044 
	C139.070511,424.544617 138.412338,425.863159 137.566895,427.556885 
	C135.858856,424.719116 134.372360,422.249420 132.401886,418.975616 
	C133.895386,424.918671 135.099701,429.710968 136.295517,434.469482 
	C138.205673,430.306244 140.444992,425.425659 142.684296,420.545044 
	C142.362289,420.356842 142.040283,420.168640 141.718277,419.980408 
	C141.142441,420.839417 140.566605,421.698425 139.728668,423.226044 
M44.828209,425.018219 
	C46.774567,425.018219 48.720921,425.018219 50.667278,425.018219 
	C50.920650,424.548126 51.174026,424.078064 51.427399,423.607971 
	C49.858433,422.391052 48.364460,420.316010 46.701824,420.170715 
	C44.539768,419.981750 41.589146,420.716614 40.208378,422.199554 
	C39.063564,423.429047 39.700787,426.317810 39.581707,428.001984 
	C41.571621,426.664032 42.794949,425.841522 44.828209,425.018219 
M195.237869,424.632843 
	C193.726562,420.277771 190.465759,418.230835 186.665787,420.249847 
	C184.928131,421.173126 183.150177,424.485748 183.483459,426.338165 
	C184.220810,430.436432 188.131516,430.847961 191.391342,429.828156 
	C192.985855,429.329315 193.974152,426.892853 195.237869,424.632843 
M170.355942,430.140869 
	C174.101746,430.102295 176.404953,428.419952 176.177948,424.471710 
	C175.975388,420.948395 173.538681,419.924225 170.358734,419.836639 
	C167.173340,419.748932 164.584015,420.754028 164.161865,424.107361 
	C163.686432,427.884125 165.839783,429.909302 170.355942,430.140869 
M89.092087,393.625702 
	C89.092087,396.623718 89.092087,399.621735 89.092087,402.619751 
	C89.539131,402.636658 89.986183,402.653564 90.433228,402.670471 
	C90.754524,400.900879 91.075821,399.131287 91.370934,397.505951 
	C95.006241,395.975006 100.767525,399.325134 101.453003,392.934937 
	C101.576515,391.783630 98.264687,389.149384 96.568863,389.175110 
	C93.940369,389.214935 88.893517,386.129913 89.092087,393.625702 
M165.347168,397.537842 
	C164.896133,396.499969 164.445084,395.462097 163.994049,394.424225 
	C164.460480,394.374725 164.926895,394.325226 165.393326,394.275726 
	C165.829544,398.759735 166.265778,403.243713 166.725983,407.974365 
	C168.903854,403.248779 171.135696,398.406067 173.367538,393.563354 
	C172.972549,393.357788 172.577560,393.152222 172.182571,392.946655 
	C170.914917,395.280212 169.647278,397.613770 168.213165,400.253723 
	C167.137802,399.433044 166.375870,398.851593 165.347168,397.537842 
M35.689869,397.605591 
	C36.074284,398.837982 36.144833,400.852875 36.901783,401.156494 
	C39.204300,402.080017 41.909775,403.051880 44.186749,402.608887 
	C45.658321,402.322571 47.450985,399.663605 47.615650,397.927155 
	C47.752968,396.479065 46.024471,393.894135 44.607708,393.448395 
	C41.116585,392.350006 37.217056,391.915924 35.689869,397.605591 
M65.929886,394.165985 
	C63.607620,396.643036 63.261505,399.735046 65.993469,401.455658 
	C68.003860,402.721802 71.388870,402.890442 73.712982,402.146790 
	C75.007027,401.732758 76.267395,398.317261 75.990036,396.490143 
	C75.409760,392.667511 71.963287,392.736877 68.899788,392.963348 
	C68.119629,393.021057 67.367996,393.464447 65.929886,394.165985 
M59.119499,421.178223 
	C60.503239,421.593567 61.886978,422.008911 64.205605,422.704895 
	C60.340572,419.305145 55.813816,419.002838 53.904053,421.594666 
	C52.128216,424.004730 52.260143,426.440887 54.812714,428.531830 
	C53.929375,424.968445 53.869438,422.018921 59.119499,421.178223 
M24.124046,400.891785 
	C24.399117,401.502075 24.674187,402.112335 25.417692,403.761932 
	C25.417692,398.141083 25.417692,393.779419 25.417692,389.417786 
	C24.978144,389.425568 24.538595,389.433350 24.099047,389.441132 
	C24.099047,392.965912 24.099047,396.490662 24.124046,400.891785 
M143.393036,402.896027 
	C143.757050,403.120789 144.121063,403.345520 144.485077,403.570282 
	C144.504761,403.299072 144.610901,402.826782 144.529129,402.791626 
	C144.181946,402.642395 143.779037,402.622833 143.393036,402.896027 
M71.914528,430.491791 
	C71.914528,430.491791 71.974380,430.423950 71.914528,430.491791 
M184.957489,403.562317 
	C184.957489,403.562317 184.924927,403.477722 184.957489,403.562317 
M55.500805,403.527100 
	C55.500805,403.527100 55.485912,403.486267 55.500805,403.527100 
M54.525871,401.498779 
	C54.525871,401.498779 54.486641,401.512787 54.525871,401.498779 
z"/>
<path fill="#F3893F" opacity="1.000000" stroke="none" 
	d="
M701.998657,435.996155 
	C653.049377,435.995697 604.599731,436.008453 556.150085,435.982178 
	C547.807739,435.977661 540.822632,433.159973 536.371826,425.665619 
	C531.565552,417.572937 531.810852,409.445190 536.816467,401.597321 
	C541.241577,394.659546 548.056152,392.020630 556.013733,392.016327 
	C599.635071,391.992737 643.256409,392.004242 686.877747,392.003876 
	C695.868408,392.003815 704.859253,391.969391 713.849670,392.012512 
	C732.664490,392.102722 742.855896,409.725739 733.442078,425.977234 
	C729.595886,432.617065 723.289795,435.378998 715.979858,435.919922 
	C711.508606,436.250824 706.993591,435.990845 701.998657,435.996155 
M613.230896,412.530701 
	C613.590210,413.635254 613.791992,414.827423 614.346130,415.823578 
	C615.155579,417.278595 616.218079,418.592804 617.172729,419.967010 
	C618.060730,418.703278 619.037415,417.490997 619.809631,416.160126 
	C620.467957,415.025452 620.891052,413.754333 621.783203,411.705170 
	C622.803711,414.500031 623.199036,416.542847 624.277771,418.117340 
	C624.789124,418.863647 627.613037,419.098999 627.683044,418.915436 
	C629.033203,415.373291 630.130188,411.734650 631.279236,408.115845 
	C630.705566,407.885162 630.131897,407.654480 629.558228,407.423798 
	C628.376099,409.800751 627.194031,412.177734 625.809448,414.961792 
	C624.387268,411.998352 623.295288,409.723083 621.540405,406.066376 
	C619.806702,409.913574 618.701355,412.366577 617.410278,415.231689 
	C616.042236,412.421906 614.840088,409.952881 613.638000,407.483826 
	C613.153625,407.711700 612.669250,407.939545 612.184937,408.167389 
	C612.474304,409.383484 612.763733,410.599548 613.230896,412.530701 
M644.736023,419.942932 
	C647.010132,415.906647 645.937256,411.908905 645.448059,407.904449 
	C644.878845,407.839386 644.309631,407.774323 643.740417,407.709259 
	C643.407288,410.068268 643.074158,412.427277 642.732422,414.846863 
	C638.615417,413.677917 639.070068,406.797546 633.719604,407.972656 
	C633.719604,412.176056 633.719604,416.033966 633.719604,419.891907 
	C634.204041,419.916565 634.688477,419.941193 635.172974,419.965851 
	C635.469543,417.577026 635.766174,415.188232 636.091064,412.571625 
	C638.903442,415.244537 641.412292,417.628967 644.736023,419.942932 
M668.954895,420.202911 
	C672.675415,419.730804 674.919067,417.263123 674.574890,413.898132 
	C674.356384,411.761200 672.328247,408.681000 670.476013,408.119141 
	C668.047852,407.382660 664.527039,407.999176 662.375916,409.407684 
	C660.994995,410.311951 660.519775,413.821075 660.904907,415.931366 
	C661.581421,419.637451 664.842896,420.394196 668.954895,420.202911 
M681.771729,417.835327 
	C684.308105,418.422485 686.844482,419.009613 690.021301,419.744995 
	C688.212524,416.055267 686.667786,412.660950 684.903442,409.384918 
	C683.577148,406.922363 681.817749,406.870758 680.506042,409.376984 
	C678.787903,412.659821 677.328613,416.078156 675.173096,420.689392 
	C678.001648,419.307434 679.487427,418.581543 681.771729,417.835327 
M582.657166,418.866180 
	C586.263062,420.915863 590.136108,421.134247 592.828125,418.004272 
	C594.190186,416.420654 594.752686,412.792328 593.886292,410.914520 
	C591.671631,406.114349 587.049500,407.720612 582.522095,407.952026 
	C582.522095,411.464203 582.522095,414.729523 582.657166,418.866180 
M692.080322,410.038940 
	C692.080322,413.281708 692.080322,416.524506 692.080322,419.827362 
	C696.935303,420.033691 701.684998,421.383698 703.642761,416.394501 
	C704.417725,414.419617 703.769409,410.556610 702.289673,409.311157 
	C699.452393,406.923157 695.560852,406.194885 692.080322,410.038940 
M557.725769,416.583069 
	C558.328552,417.381958 558.886536,418.825989 559.541565,418.871460 
	C562.912048,419.105164 566.307434,418.979767 569.502441,418.979767 
	C569.502441,415.617950 569.502441,413.066772 569.502441,410.837006 
	C565.418213,410.837006 561.735291,410.837006 557.705994,410.837006 
	C557.705994,412.425232 557.705994,414.060272 557.725769,416.583069 
M610.754028,415.858887 
	C610.831299,415.199371 611.007935,414.534027 610.969849,413.881256 
	C610.703064,409.306122 607.509460,406.687683 602.921082,407.236328 
	C598.620361,407.750610 596.263184,410.659821 596.834473,414.748291 
	C597.396301,418.768677 600.887878,421.202454 605.359741,420.068298 
	C607.228882,419.594269 608.758667,417.782166 610.754028,415.858887 
M649.200317,408.727936 
	C649.200317,412.324554 649.200317,415.921173 649.200317,419.572388 
	C652.729980,419.572388 655.802002,419.572388 658.873962,419.572388 
	C658.902710,419.187469 658.931458,418.802551 658.960205,418.417633 
	C656.687439,418.167847 654.414612,417.918060 651.679993,417.617523 
	C651.679993,415.059845 651.864319,412.747253 651.586304,410.491699 
	C651.480042,409.629761 650.315430,408.898254 649.200317,408.727936 
z"/>
<path fill="#F3F1F1" opacity="1.000000" stroke="none" 
	d="
M240.302780,252.517303 
	C242.646378,257.257324 244.438599,262.385895 247.448029,266.656708 
	C253.762390,275.617706 262.933075,275.689453 269.965149,267.390503 
	C270.493469,266.766998 271.024689,266.145935 271.706421,265.345398 
	C274.819397,267.105042 277.816437,268.799133 280.813904,270.493469 
	C270.384094,288.269501 250.934708,289.437714 239.092972,273.248932 
	C229.697388,260.404297 226.026474,245.361664 223.029694,230.101425 
	C222.358704,226.684601 221.734818,223.258514 220.921921,218.949814 
	C214.789780,225.557281 209.645523,231.849518 208.908279,240.550903 
	C208.336716,247.296692 212.975510,252.885406 219.659409,253.979263 
	C220.952606,254.190918 222.260605,254.311935 223.768494,254.500641 
	C223.768494,258.066620 223.768494,261.475525 223.768494,264.848663 
	C207.542419,266.528778 195.020935,252.453568 198.608902,236.943085 
	C201.094315,226.198959 207.244446,217.494812 214.635559,209.734756 
	C221.945068,202.060410 229.840759,194.944351 238.841156,186.271011 
	C231.002335,186.271011 224.169693,185.267838 217.767136,186.499771 
	C207.466034,188.481857 204.742615,195.879364 209.035126,207.941406 
	C206.148834,209.526260 203.180679,211.156067 200.252197,212.764099 
	C192.301926,201.676392 194.431290,179.847015 215.448212,175.956161 
	C230.708603,173.130966 245.185135,177.289841 259.579102,181.577164 
	C264.290619,182.980515 268.898163,184.732864 274.312439,186.585388 
	C272.104431,178.326126 269.359497,171.334915 263.061859,166.388977 
	C256.688568,161.383606 249.136353,163.316864 242.220200,171.753006 
	C239.325439,170.034149 236.378250,168.284164 233.464050,166.553757 
	C240.601700,150.148346 261.866760,147.667633 273.557129,161.872467 
	C280.973206,170.883728 285.192139,181.631897 288.010956,192.857620 
	C290.063995,201.033752 291.637817,209.330215 294.628418,218.272446 
	C297.913910,212.482819 302.078003,207.007111 304.284546,200.831955 
	C307.833466,190.900192 302.756226,184.526016 290.542053,182.354172 
	C290.542053,179.050919 290.542053,175.669785 290.546021,172.282410 
	C306.193665,170.721878 318.965729,184.963608 315.686249,200.290009 
	C313.852692,208.859192 309.202393,216.007690 303.668549,222.459976 
	C295.346527,232.163193 286.531586,241.443634 278.357666,250.429474 
	C284.886230,251.818283 293.404602,253.278442 301.581573,248.484421 
	C306.505707,245.597473 308.518982,239.271103 306.662445,233.581604 
	C306.205261,232.180511 305.562042,230.840118 304.815277,229.007919 
	C307.862823,227.372681 310.732208,225.833054 313.551178,224.320465 
	C322.013245,233.964737 318.161865,251.661926 306.234283,258.456787 
	C299.187439,262.471252 291.518890,263.282715 283.516998,262.645660 
	C269.048859,261.493866 255.537964,256.919525 241.613342,251.365509 
	C240.785278,251.580048 240.544037,252.048676 240.302780,252.517303 
M250.041107,190.132202 
	C249.780640,190.189865 249.520172,190.247528 249.259705,190.305176 
	C249.424210,190.618484 249.588715,190.931808 249.781754,191.912064 
	C248.393646,193.240112 247.081085,194.659576 245.604019,195.879959 
	C239.992325,200.516479 234.327454,205.088638 229.780670,208.790710 
	C231.976654,219.757339 233.946686,229.595505 235.647202,238.087738 
	C246.360641,239.634903 254.688995,246.038345 264.498535,247.018448 
	C264.838593,240.931122 270.762634,240.098953 274.073425,236.848953 
	C277.606689,233.380569 281.476257,230.254745 284.164581,227.889481 
	C282.042847,217.080536 280.111298,207.240372 278.527832,199.173615 
	C267.949432,197.516953 259.762665,191.945877 250.041107,190.132202 
z"/>
<path fill="#223B88" opacity="1.000000" stroke="none" 
	d="
M424.063721,237.681503 
	C424.487000,231.769318 424.210175,226.127762 425.554535,220.903381 
	C429.768463,204.527588 444.669067,194.571915 463.185120,195.069412 
	C485.986267,195.682068 502.814667,215.252640 499.689697,238.062103 
	C488.140106,238.062103 476.520599,238.061707 464.901093,238.062271 
	C459.067810,238.062561 453.232666,237.971970 447.401733,238.089966 
	C440.591919,238.227753 438.128906,242.470764 441.434418,248.453644 
	C444.946594,254.810532 450.871307,257.796143 457.720978,258.725525 
	C466.420288,259.905945 474.187775,257.850952 481.790649,252.837540 
	C485.673676,250.277023 491.642365,250.879486 497.405945,249.930923 
	C491.763123,263.893219 475.130463,272.317169 458.912140,270.561127 
	C438.706909,268.373322 427.421631,257.862549 424.063721,237.681503 
M440.829041,222.207245 
	C441.728485,226.390305 444.916656,227.029984 448.435577,227.045166 
	C456.748779,227.081024 465.062225,227.087967 473.375458,227.062195 
	C477.046570,227.050812 481.915894,227.341461 482.526123,223.121506 
	C483.013580,219.750656 481.316467,215.157135 479.006256,212.464081 
	C472.879181,205.321808 458.487335,203.963547 449.318024,208.868042 
	C444.321167,211.540771 441.034637,215.452225 440.829041,222.207245 
z"/>
<path fill="#233B88" opacity="1.000000" stroke="none" 
	d="
M562.273315,226.466309 
	C557.607056,239.532578 552.987976,252.200424 548.601501,264.948303 
	C547.598633,267.862854 546.366150,269.139832 543.036011,269.104462 
	C532.128723,268.988617 532.127075,269.146210 528.405090,258.733582 
	C521.738281,240.082581 515.067810,221.432922 508.410706,202.778442 
	C507.805695,201.083084 507.286804,199.357010 506.499115,196.944427 
	C510.853241,196.944427 514.648193,196.668411 518.362488,197.094757 
	C519.655457,197.243179 521.338440,198.908081 521.840393,200.254364 
	C525.794006,210.857773 529.483154,221.559509 533.303467,232.213104 
	C534.408630,235.294952 535.039246,238.918854 539.454529,239.022049 
	C543.894043,239.125839 544.668640,235.597412 545.800903,232.481644 
	C549.553467,222.155167 553.453430,211.877136 556.926941,201.457199 
	C558.151123,197.784805 559.973755,196.434799 563.738647,196.872589 
	C566.508118,197.194641 569.345093,196.935776 572.826355,196.935776 
	C569.211243,207.051514 565.808044,216.574234 562.273315,226.466309 
z"/>
<path fill="#203A89" opacity="1.000000" stroke="none" 
	d="
M394.219604,248.001404 
	C394.219635,255.124847 394.219635,261.748718 394.219635,268.685181 
	C389.438660,268.685181 385.026917,268.685181 380.334320,268.685181 
	C380.192139,268.233215 379.843933,267.641998 379.844055,267.050842 
	C379.847015,253.751923 379.521301,240.439270 380.019226,227.157730 
	C380.585144,212.062576 390.481476,200.571335 404.938660,197.482941 
	C408.090393,196.809662 411.435944,197.043625 414.961548,196.844543 
	C414.961548,201.721832 414.961548,205.975052 414.961548,210.475143 
	C412.853394,210.867722 410.747864,211.089569 408.742737,211.662598 
	C399.902679,214.188965 394.513092,221.741226 394.246674,232.040817 
	C394.113464,237.191269 394.220947,242.347961 394.219604,248.001404 
z"/>
<path fill="#382412" opacity="1.000000" stroke="none" 
	d="
M135.914764,395.045715 
	C136.063553,397.822113 136.063553,400.230316 136.063553,402.638550 
	C135.664810,402.639374 135.266068,402.640198 134.867325,402.641022 
	C134.867325,401.149780 135.258606,399.509949 134.763626,398.206726 
	C134.204041,396.733398 132.848541,395.562408 131.839142,394.259949 
	C130.571060,395.494934 128.932388,396.534790 128.148163,398.024506 
	C127.479935,399.293884 127.794838,401.080780 127.620506,403.343567 
	C124.475761,400.520844 128.552475,393.988281 122.376793,394.581329 
	C120.666550,394.745544 119.240097,397.864990 118.569679,398.624542 
	C118.379295,393.187775 119.995583,391.936951 126.660820,394.090149 
	C127.370255,394.319336 128.328064,393.645416 129.137146,393.726105 
	C131.356293,393.947601 133.557602,394.347992 135.914764,395.045715 
z"/>
<path fill="#382412" opacity="1.000000" stroke="none" 
	d="
M151.312408,418.250732 
	C148.455078,421.177979 148.055176,424.267670 150.662308,426.891510 
	C154.248108,430.500366 157.854279,428.663055 161.292847,426.059967 
	C160.211533,430.006256 157.178497,430.283966 153.930145,430.102264 
	C150.276245,429.897949 148.072128,427.843506 147.378677,424.369904 
	C146.689865,420.919464 147.803680,417.819824 151.136581,416.525513 
	C154.724075,415.132355 158.449066,415.177551 161.088348,418.050873 
	C157.940781,418.050873 154.793167,418.050873 151.312408,418.250732 
z"/>
<path fill="#F06F16" opacity="1.000000" stroke="none" 
	d="
M116.991051,420.012482 
	C120.798943,423.015259 120.989288,426.418365 117.117737,429.548035 
	C115.885330,429.139954 114.875687,429.308472 114.306770,428.884979 
	C112.761024,427.734314 111.401932,426.332886 109.968842,425.030884 
	C111.364525,423.713562 112.682785,422.297180 114.188332,421.120422 
	C114.947441,420.527039 116.045990,420.367950 116.991051,420.012482 
z"/>
<path fill="#382412" opacity="1.000000" stroke="none" 
	d="
M139.859711,422.891724 
	C140.566605,421.698425 141.142441,420.839417 141.718277,419.980408 
	C142.040283,420.168640 142.362289,420.356842 142.684296,420.545044 
	C140.444992,425.425659 138.205673,430.306244 136.295517,434.469482 
	C135.099701,429.710968 133.895386,424.918671 132.401886,418.975616 
	C134.372360,422.249420 135.858856,424.719116 137.566895,427.556885 
	C138.412338,425.863159 139.070511,424.544617 139.859711,422.891724 
z"/>
<path fill="#2E2112" opacity="1.000000" stroke="none" 
	d="
M44.423241,425.018616 
	C42.794949,425.841522 41.571621,426.664032 39.581707,428.001984 
	C39.700787,426.317810 39.063564,423.429047 40.208378,422.199554 
	C41.589146,420.716614 44.539768,419.981750 46.701824,420.170715 
	C48.364460,420.316010 49.858433,422.391052 51.427399,423.607971 
	C51.174026,424.078064 50.920650,424.548126 50.667278,425.018219 
	C48.720921,425.018219 46.774567,425.018219 44.423241,425.018616 
z"/>
<path fill="#2E2112" opacity="1.000000" stroke="none" 
	d="
M33.173195,428.517548 
	C35.405422,426.900238 34.996315,425.528015 32.635975,424.678589 
	C30.623558,423.954376 28.348818,423.838593 26.475843,422.889709 
	C25.223484,422.255249 23.629332,420.562317 23.721107,419.472076 
	C23.822502,418.267609 25.504539,416.540985 26.794916,416.214417 
	C30.713892,415.222595 34.312271,416.151581 37.590717,420.196350 
	C33.044121,419.085968 29.238489,414.656494 24.240221,420.163849 
	C27.472130,421.257782 30.116653,422.047211 32.678455,423.048309 
	C35.520023,424.158752 38.170803,425.507843 34.543282,429.023621 
	C33.738075,428.840881 33.454109,428.681946 33.173195,428.517548 
z"/>
<path fill="#382412" opacity="1.000000" stroke="none" 
	d="
M195.237350,424.983093 
	C193.974152,426.892853 192.985855,429.329315 191.391342,429.828156 
	C188.131516,430.847961 184.220810,430.436432 183.483459,426.338165 
	C183.150177,424.485748 184.928131,421.173126 186.665787,420.249847 
	C190.465759,418.230835 193.726562,420.277771 195.237350,424.983093 
M192.499435,427.638397 
	C194.335953,425.105316 194.140366,422.653656 191.149002,421.625427 
	C189.609344,421.096161 187.203857,421.721313 185.803070,422.701477 
	C185.050705,423.227936 185.097229,426.702637 185.646866,426.953308 
	C187.487473,427.792725 189.717087,427.779144 192.499435,427.638397 
z"/>
<path fill="#382412" opacity="1.000000" stroke="none" 
	d="
M169.994568,430.138763 
	C165.839783,429.909302 163.686432,427.884125 164.161865,424.107361 
	C164.584015,420.754028 167.173340,419.748932 170.358734,419.836639 
	C173.538681,419.924225 175.975388,420.948395 176.177948,424.471710 
	C176.404953,428.419952 174.101746,430.102295 169.994568,430.138763 
M174.659836,424.542267 
	C174.017075,423.622437 173.442413,421.989380 172.718430,421.920258 
	C170.762573,421.733490 168.492996,421.754486 166.867050,422.643066 
	C166.176712,423.020386 166.287964,426.968597 166.892151,427.218109 
	C168.742447,427.982208 171.021790,427.923035 173.103653,427.769287 
	C173.671509,427.727356 174.131485,426.224121 174.659836,424.542267 
z"/>
<path fill="#382412" opacity="1.000000" stroke="none" 
	d="
M89.093178,393.164032 
	C88.893517,386.129913 93.940369,389.214935 96.568863,389.175110 
	C98.264687,389.149384 101.576515,391.783630 101.453003,392.934937 
	C100.767525,399.325134 95.006241,395.975006 91.370934,397.505951 
	C91.075821,399.131287 90.754524,400.900879 90.433228,402.670471 
	C89.986183,402.653564 89.539131,402.636658 89.092087,402.619751 
	C89.092087,399.621735 89.092087,396.623718 89.093178,393.164032 
M90.974243,392.593658 
	C91.847488,393.620728 92.699715,395.481567 93.598259,395.504242 
	C95.572723,395.553986 97.570618,394.674286 99.558945,394.173981 
	C99.236336,393.069550 98.899651,391.007233 98.593338,391.011719 
	C96.072327,391.048767 93.556953,391.469666 90.974243,392.593658 
z"/>
<path fill="#382412" opacity="1.000000" stroke="none" 
	d="
M165.480560,397.903992 
	C166.375870,398.851593 167.137802,399.433044 168.213165,400.253723 
	C169.647278,397.613770 170.914917,395.280212 172.182571,392.946655 
	C172.577560,393.152222 172.972549,393.357788 173.367538,393.563354 
	C171.135696,398.406067 168.903854,403.248779 166.725983,407.974365 
	C166.265778,403.243713 165.829544,398.759735 165.393326,394.275726 
	C164.926895,394.325226 164.460480,394.374725 163.994049,394.424225 
	C164.445084,395.462097 164.896133,396.499969 165.480560,397.903992 
z"/>
<path fill="#2E2112" opacity="1.000000" stroke="none" 
	d="
M35.735809,397.239990 
	C37.217056,391.915924 41.116585,392.350006 44.607708,393.448395 
	C46.024471,393.894135 47.752968,396.479065 47.615650,397.927155 
	C47.450985,399.663605 45.658321,402.322571 44.186749,402.608887 
	C41.909775,403.051880 39.204300,402.080017 36.901783,401.156494 
	C36.144833,400.852875 36.074284,398.837982 35.735809,397.239990 
M45.672523,396.044556 
	C43.322594,395.713898 40.962574,395.156097 38.631939,395.259644 
	C38.207146,395.278534 37.131943,398.650604 37.707294,399.328339 
	C38.802624,400.618439 41.376488,402.138458 42.420174,401.640900 
	C44.004459,400.885651 44.807167,398.490875 45.672523,396.044556 
z"/>
<path fill="#382412" opacity="1.000000" stroke="none" 
	d="
M57.861885,393.964874 
	C59.093857,393.790039 60.325829,393.615173 62.125904,393.359711 
	C60.971355,398.273682 64.606354,404.175995 58.671352,407.371826 
	C56.670071,408.449432 53.437946,407.241180 51.005344,406.310089 
	C53.749268,405.980682 58.509472,406.286804 58.851875,405.200439 
	C59.806614,402.171417 58.929855,398.565094 58.366096,394.823364 
	C57.924599,394.294952 57.893242,394.129913 57.861885,393.964874 
z"/>
<path fill="#2E2112" opacity="1.000000" stroke="none" 
	d="
M66.266571,393.948303 
	C67.367996,393.464447 68.119629,393.021057 68.899788,392.963348 
	C71.963287,392.736877 75.409760,392.667511 75.990036,396.490143 
	C76.267395,398.317261 75.007027,401.732758 73.712982,402.146790 
	C71.388870,402.890442 68.003860,402.721802 65.993469,401.455658 
	C63.261505,399.735046 63.607620,396.643036 66.266571,393.948303 
M68.143570,394.476837 
	C65.564377,396.177582 64.775490,398.665161 67.271957,400.492126 
	C68.660187,401.508057 71.434959,401.095093 73.403900,400.602631 
	C74.106483,400.426941 74.938850,397.205688 74.575577,396.942383 
	C72.896553,395.725403 70.817383,395.060425 68.143570,394.476837 
z"/>
<path fill="#382412" opacity="1.000000" stroke="none" 
	d="
M180.997101,401.038513 
	C177.537903,399.669128 178.312943,396.966370 179.741669,395.002686 
	C182.073669,391.797455 185.670029,392.094604 188.643860,393.843414 
	C191.732742,395.659882 191.819077,398.501099 188.855270,402.403656 
	C189.153656,397.889709 189.779190,393.764221 184.403946,394.175354 
	C181.476654,394.399261 179.888748,396.065918 180.837051,399.887543 
	C180.980576,400.695862 180.988846,400.867188 180.997101,401.038513 
z"/>
<path fill="#382412" opacity="1.000000" stroke="none" 
	d="
M67.997223,428.038544 
	C64.537926,426.668304 65.312111,423.965424 66.742447,422.001465 
	C69.076309,418.796875 72.673225,419.093536 75.647087,420.845612 
	C78.734406,422.664490 78.817039,425.505127 75.845100,429.417450 
	C76.180984,424.863708 76.751183,420.770386 71.392860,421.174652 
	C68.463943,421.395630 66.883736,423.074615 67.837555,426.890381 
	C67.980629,427.695892 67.988922,427.867218 67.997223,428.038544 
z"/>
<path fill="#382412" opacity="1.000000" stroke="none" 
	d="
M58.703762,421.181000 
	C53.869438,422.018921 53.929375,424.968445 54.812714,428.531830 
	C52.260143,426.440887 52.128216,424.004730 53.904053,421.594666 
	C55.813816,419.002838 60.340572,419.305145 64.205605,422.704895 
	C61.886978,422.008911 60.503239,421.593567 58.703762,421.181000 
z"/>
<path fill="#382412" opacity="1.000000" stroke="none" 
	d="
M101.887383,429.944092 
	C100.746414,430.008270 99.604813,430.136078 98.464607,430.124573 
	C95.118332,430.090759 93.159836,428.217804 93.089371,425.032654 
	C93.017967,421.805176 94.917709,419.911896 98.310547,419.880066 
	C99.288742,419.870880 100.267761,419.951202 101.745728,420.273224 
	C102.477577,421.052399 102.710098,421.548767 102.962036,422.019287 
	C102.981445,421.993439 103.019943,421.941467 102.778870,422.016907 
	C102.371216,422.117218 102.204636,422.142059 101.743919,421.928223 
	C99.413605,422.123016 97.242821,422.285339 95.436691,423.182098 
	C94.989647,423.404053 95.341805,427.082306 95.991066,427.314606 
	C97.836388,427.974823 100.024918,427.675751 102.360260,427.873169 
	C102.390587,428.642700 102.138985,429.293427 101.887383,429.944092 
z"/>
<path fill="#382412" opacity="1.000000" stroke="none" 
	d="
M146.118546,393.222351 
	C147.588669,393.150452 149.058777,393.078583 150.845123,392.991211 
	C150.845123,396.317261 150.845123,399.394562 150.845123,402.622070 
	C149.782013,402.439941 148.729431,402.259644 147.249222,402.006073 
	C149.107315,399.335846 150.464294,396.522583 146.472153,393.927887 
	C146.180191,393.571228 146.118546,393.222351 146.118546,393.222351 
z"/>
<path fill="#F06F16" opacity="1.000000" stroke="none" 
	d="
M145.852997,393.019958 
	C146.118546,393.222351 146.180191,393.571228 146.167114,393.747894 
	C142.114853,394.751831 140.571777,397.389496 141.239914,401.630951 
	C140.672211,401.634827 140.104492,401.638702 139.536789,401.642578 
	C139.243042,399.928589 138.358963,398.051849 138.777298,396.534149 
	C139.673538,393.282654 142.045425,391.727600 145.852997,393.019958 
z"/>
<path fill="#2E2112" opacity="1.000000" stroke="none" 
	d="
M116.570236,419.991272 
	C116.045990,420.367950 114.947441,420.527039 114.188332,421.120422 
	C112.682785,422.297180 111.364525,423.713562 109.968842,425.030884 
	C111.401932,426.332886 112.761024,427.734314 114.306770,428.884979 
	C114.875687,429.308472 115.885330,429.139954 116.820038,429.606384 
	C115.949394,430.017670 114.953079,430.087830 113.955811,430.106018 
	C110.557167,430.167999 108.408203,428.369049 108.291679,425.127472 
	C108.173546,421.840973 110.266319,419.991547 113.656364,419.897125 
	C114.486061,419.874054 115.318329,419.943237 116.570236,419.991272 
z"/>
<path fill="#F06F16" opacity="1.000000" stroke="none" 
	d="
M57.610123,393.801636 
	C57.893242,394.129913 57.924599,394.294952 58.021381,394.703064 
	C52.838474,393.841553 51.663090,396.848724 52.146862,401.530853 
	C51.609348,401.533875 51.071835,401.536926 50.534325,401.539978 
	C50.229221,399.873779 49.154934,397.807617 49.771992,396.620941 
	C51.260952,393.757507 53.666359,391.640900 57.610123,393.801636 
z"/>
<path fill="#382412" opacity="1.000000" stroke="none" 
	d="
M24.111546,400.453613 
	C24.099047,396.490662 24.099047,392.965912 24.099047,389.441132 
	C24.538595,389.433350 24.978144,389.425568 25.417692,389.417786 
	C25.417692,393.779419 25.417692,398.141083 25.417692,403.761932 
	C24.674187,402.112335 24.399117,401.502075 24.111546,400.453613 
z"/>
<path fill="#382412" opacity="1.000000" stroke="none" 
	d="
M32.746944,428.585754 
	C33.454109,428.681946 33.738075,428.840881 34.240723,429.109192 
	C30.431196,431.079559 26.988375,430.051392 22.927885,426.830750 
	C26.736528,427.570007 29.528612,428.111969 32.746944,428.585754 
z"/>
<path fill="#382412" opacity="1.000000" stroke="none" 
	d="
M105.575226,416.178162 
	C105.477333,420.294006 105.379448,424.409882 105.136101,428.470093 
	C104.670959,427.945862 104.351273,427.477325 104.160866,426.808655 
	C104.290146,426.608490 104.285759,426.131958 104.543503,425.929626 
	C104.258102,425.037994 103.714966,424.348694 103.231125,423.502747 
	C103.290413,423.346069 103.212143,423.020355 103.290283,422.728149 
	C103.252266,422.271088 103.136101,422.106262 103.019943,421.941467 
	C103.019943,421.941467 102.981445,421.993439 103.378601,422.050598 
	C104.375580,420.131256 104.975403,418.154694 105.575226,416.178162 
z"/>
<path fill="#F06F16" opacity="1.000000" stroke="none" 
	d="
M105.224754,416.246643 
	C104.975403,418.154694 104.375580,420.131256 103.359184,422.076477 
	C102.710098,421.548767 102.477577,421.052399 102.086838,420.299713 
	C102.910500,418.800659 103.892387,417.557892 105.224754,416.246643 
z"/>
<path fill="#F06F16" opacity="1.000000" stroke="none" 
	d="
M104.031578,427.008789 
	C104.351273,427.477325 104.670959,427.945862 105.006531,428.700623 
	C104.194466,429.274567 103.366516,429.562286 102.212975,429.897095 
	C102.138985,429.293427 102.390587,428.642700 102.577957,427.723694 
	C103.019676,427.306488 103.525627,427.157623 104.031578,427.008789 
z"/>
<path fill="#F06F16" opacity="1.000000" stroke="none" 
	d="
M143.394760,402.725952 
	C143.779037,402.622833 144.181946,402.642395 144.529129,402.791626 
	C144.610901,402.826782 144.504761,403.299072 144.485077,403.570282 
	C144.121063,403.345520 143.757050,403.120789 143.394760,402.725952 
z"/>
<path fill="#F06F16" opacity="1.000000" stroke="none" 
	d="
M181.040375,401.246948 
	C180.988846,400.867188 180.980576,400.695862 181.035095,400.275055 
	C181.406525,400.699097 181.715164,401.372559 182.023804,402.046051 
	C181.710419,401.849152 181.397034,401.652283 181.040375,401.246948 
z"/>
<path fill="#F06F16" opacity="1.000000" stroke="none" 
	d="
M68.040466,428.246948 
	C67.988922,427.867218 67.980629,427.695892 68.035110,427.275085 
	C68.406525,427.699066 68.715157,428.372528 69.023788,429.045990 
	C68.710426,428.849121 68.397072,428.652252 68.040466,428.246948 
z"/>
<path fill="#F06F16" opacity="1.000000" stroke="none" 
	d="
M71.944458,430.457886 
	C71.974380,430.423950 71.914528,430.491791 71.944458,430.457886 
z"/>
<path fill="#F06F16" opacity="1.000000" stroke="none" 
	d="
M184.941208,403.520020 
	C184.924927,403.477722 184.957489,403.562317 184.941208,403.520020 
z"/>
<path fill="#F06F16" opacity="1.000000" stroke="none" 
	d="
M55.493359,403.506683 
	C55.485912,403.486267 55.500805,403.527100 55.493359,403.506683 
z"/>
<path fill="#F06F16" opacity="1.000000" stroke="none" 
	d="
M54.506256,401.505798 
	C54.486641,401.512787 54.525871,401.498779 54.506256,401.505798 
z"/>
<path fill="#FCEFE6" opacity="1.000000" stroke="none" 
	d="
M613.141968,412.173157 
	C612.763733,410.599548 612.474304,409.383484 612.184937,408.167389 
	C612.669250,407.939545 613.153625,407.711700 613.638000,407.483826 
	C614.840088,409.952881 616.042236,412.421906 617.410278,415.231689 
	C618.701355,412.366577 619.806702,409.913574 621.540405,406.066376 
	C623.295288,409.723083 624.387268,411.998352 625.809448,414.961792 
	C627.194031,412.177734 628.376099,409.800751 629.558228,407.423798 
	C630.131897,407.654480 630.705566,407.885162 631.279236,408.115845 
	C630.130188,411.734650 629.033203,415.373291 627.683044,418.915436 
	C627.613037,419.098999 624.789124,418.863647 624.277771,418.117340 
	C623.199036,416.542847 622.803711,414.500031 621.783203,411.705170 
	C620.891052,413.754333 620.467957,415.025452 619.809631,416.160126 
	C619.037415,417.490997 618.060730,418.703278 617.172729,419.967010 
	C616.218079,418.592804 615.155579,417.278595 614.346130,415.823578 
	C613.791992,414.827423 613.590210,413.635254 613.141968,412.173157 
z"/>
<path fill="#FCEFE6" opacity="1.000000" stroke="none" 
	d="
M644.328613,419.978149 
	C641.412292,417.628967 638.903442,415.244537 636.091064,412.571625 
	C635.766174,415.188232 635.469543,417.577026 635.172974,419.965851 
	C634.688477,419.941193 634.204041,419.916565 633.719604,419.891907 
	C633.719604,416.033966 633.719604,412.176056 633.719604,407.972656 
	C639.070068,406.797546 638.615417,413.677917 642.732422,414.846863 
	C643.074158,412.427277 643.407288,410.068268 643.740417,407.709259 
	C644.309631,407.774323 644.878845,407.839386 645.448059,407.904449 
	C645.937256,411.908905 647.010132,415.906647 644.328613,419.978149 
z"/>
<path fill="#FCEFE6" opacity="1.000000" stroke="none" 
	d="
M668.591248,420.258728 
	C664.842896,420.394196 661.581421,419.637451 660.904907,415.931366 
	C660.519775,413.821075 660.994995,410.311951 662.375916,409.407684 
	C664.527039,407.999176 668.047852,407.382660 670.476013,408.119141 
	C672.328247,408.681000 674.356384,411.761200 674.574890,413.898132 
	C674.919067,417.263123 672.675415,419.730804 668.591248,420.258728 
M664.303955,410.504517 
	C662.076904,413.726746 662.240173,416.565002 666.280823,417.783295 
	C667.647339,418.195343 670.125244,417.405334 670.988831,416.300110 
	C671.844971,415.204529 671.958618,411.957703 671.251221,411.523773 
	C669.542542,410.475677 667.164917,410.517975 664.303955,410.504517 
z"/>
<path fill="#FCEFE6" opacity="1.000000" stroke="none" 
	d="
M681.372437,417.845459 
	C679.487427,418.581543 678.001648,419.307434 675.173096,420.689392 
	C677.328613,416.078156 678.787903,412.659821 680.506042,409.376984 
	C681.817749,406.870758 683.577148,406.922363 684.903442,409.384918 
	C686.667786,412.660950 688.212524,416.055267 690.021301,419.744995 
	C686.844482,419.009613 684.308105,418.422485 681.372437,417.845459 
z"/>
<path fill="#FCEFE6" opacity="1.000000" stroke="none" 
	d="
M582.589600,418.430511 
	C582.522095,414.729523 582.522095,411.464203 582.522095,407.952026 
	C587.049500,407.720612 591.671631,406.114349 593.886292,410.914520 
	C594.752686,412.792328 594.190186,416.420654 592.828125,418.004272 
	C590.136108,421.134247 586.263062,420.915863 582.589600,418.430511 
M584.996521,416.127014 
	C586.719299,416.505432 589.017151,417.726166 590.015991,417.044250 
	C591.204468,416.232788 592.253906,412.963562 591.629028,412.223022 
	C590.357056,410.715637 587.920837,410.190704 584.963318,408.785217 
	C584.963318,412.025177 584.963318,413.639282 584.996521,416.127014 
z"/>
<path fill="#FCEFE6" opacity="1.000000" stroke="none" 
	d="
M692.111389,409.609985 
	C695.560852,406.194885 699.452393,406.923157 702.289673,409.311157 
	C703.769409,410.556610 704.417725,414.419617 703.642761,416.394501 
	C701.684998,421.383698 696.935303,420.033691 692.080322,419.827362 
	C692.080322,416.524506 692.080322,413.281708 692.111389,409.609985 
M695.520020,410.154266 
	C695.217102,412.615662 694.914185,415.077026 694.611328,417.537628 
	C698.750854,418.321442 701.605408,417.660400 701.826965,413.796417 
	C702.029419,410.266602 699.298279,409.679443 695.520020,410.154266 
z"/>
<path fill="#F3F1F1" opacity="1.000000" stroke="none" 
	d="
M557.715881,416.139191 
	C557.705994,414.060272 557.705994,412.425232 557.705994,410.837006 
	C561.735291,410.837006 565.418213,410.837006 569.502441,410.837006 
	C569.502441,413.066772 569.502441,415.617950 569.502441,418.979767 
	C566.307434,418.979767 562.912048,419.105164 559.541565,418.871460 
	C558.886536,418.825989 558.328552,417.381958 557.715881,416.139191 
z"/>
<path fill="#FCEFE6" opacity="1.000000" stroke="none" 
	d="
M610.598389,416.218689 
	C608.758667,417.782166 607.228882,419.594269 605.359741,420.068298 
	C600.887878,421.202454 597.396301,418.768677 596.834473,414.748291 
	C596.263184,410.659821 598.620361,407.750610 602.921082,407.236328 
	C607.509460,406.687683 610.703064,409.306122 610.969849,413.881256 
	C611.007935,414.534027 610.831299,415.199371 610.598389,416.218689 
M607.573059,416.382782 
	C607.074524,414.255707 607.164490,411.551636 605.856812,410.217926 
	C605.072021,409.417572 601.738342,410.253448 600.262878,411.330322 
	C599.433350,411.935730 599.598938,415.824066 600.098389,415.998932 
	C602.265930,416.757721 604.721313,416.694214 607.573059,416.382782 
z"/>
<path fill="#FCEFE6" opacity="1.000000" stroke="none" 
	d="
M649.416748,408.417633 
	C650.315430,408.898254 651.480042,409.629761 651.586304,410.491699 
	C651.864319,412.747253 651.679993,415.059845 651.679993,417.617523 
	C654.414612,417.918060 656.687439,418.167847 658.960205,418.417633 
	C658.931458,418.802551 658.902710,419.187469 658.873962,419.572388 
	C655.802002,419.572388 652.729980,419.572388 649.200317,419.572388 
	C649.200317,415.921173 649.200317,412.324554 649.416748,408.417633 
z"/>
<path fill="#F97519" opacity="1.000000" stroke="none" 
	d="
M250.518036,190.393112 
	C259.762665,191.945877 267.949432,197.516953 278.527832,199.173615 
	C280.111298,207.240372 282.042847,217.080536 284.164581,227.889481 
	C281.476257,230.254745 277.606689,233.380569 274.073425,236.848953 
	C270.762634,240.098953 264.838593,240.931122 264.498535,247.018448 
	C254.688995,246.038345 246.360641,239.634903 235.647202,238.087738 
	C233.946686,229.595505 231.976654,219.757339 229.780670,208.790710 
	C234.327454,205.088638 239.992325,200.516479 245.604019,195.879959 
	C247.081085,194.659576 248.393646,193.240112 249.963074,191.369522 
	C250.268936,190.682358 250.393478,190.537735 250.518036,190.393112 
z"/>
<path fill="#F97316" opacity="1.000000" stroke="none" 
	d="
M240.611542,252.252014 
	C240.544037,252.048676 240.785278,251.580048 241.269440,251.269623 
	C241.315018,251.614120 241.117676,251.800415 240.611542,252.252014 
z"/>
<path fill="#F97519" opacity="1.000000" stroke="none" 
	d="
M249.948792,191.036041 
	C249.588715,190.931808 249.424210,190.618484 249.259705,190.305176 
	C249.520172,190.247528 249.780640,190.189865 250.279572,190.262665 
	C250.393478,190.537735 250.268936,190.682358 249.948792,191.036041 
z"/>
<path fill="#F67217" opacity="1.000000" stroke="none" 
	d="
M440.786072,221.794601 
	C441.034637,215.452225 444.321167,211.540771 449.318024,208.868042 
	C458.487335,203.963547 472.879181,205.321808 479.006256,212.464081 
	C481.316467,215.157135 483.013580,219.750656 482.526123,223.121506 
	C481.915894,227.341461 477.046570,227.050812 473.375458,227.062195 
	C465.062225,227.087967 456.748779,227.081024 448.435577,227.045166 
	C444.916656,227.029984 441.728485,226.390305 440.786072,221.794601 
z"/>
<path fill="#F06F16" opacity="1.000000" stroke="none" 
	d="
M192.148590,427.865295 
	C189.717087,427.779144 187.487473,427.792725 185.646866,426.953308 
	C185.097229,426.702637 185.050705,423.227936 185.803070,422.701477 
	C187.203857,421.721313 189.609344,421.096161 191.149002,421.625427 
	C194.140366,422.653656 194.335953,425.105316 192.148590,427.865295 
z"/>
<path fill="#F06F16" opacity="1.000000" stroke="none" 
	d="
M174.650391,424.966888 
	C174.131485,426.224121 173.671509,427.727356 173.103653,427.769287 
	C171.021790,427.923035 168.742447,427.982208 166.892151,427.218109 
	C166.287964,426.968597 166.176712,423.020386 166.867050,422.643066 
	C168.492996,421.754486 170.762573,421.733490 172.718430,421.920258 
	C173.442413,421.989380 174.017075,423.622437 174.650391,424.966888 
z"/>
<path fill="#F06F16" opacity="1.000000" stroke="none" 
	d="
M91.007057,392.183899 
	C93.556953,391.469666 96.072327,391.048767 98.593338,391.011719 
	C98.899651,391.007233 99.236336,393.069550 99.558945,394.173981 
	C97.570618,394.674286 95.572723,395.553986 93.598259,395.504242 
	C92.699715,395.481567 91.847488,393.620728 91.007057,392.183899 
z"/>
<path fill="#F06F16" opacity="1.000000" stroke="none" 
	d="
M45.807205,396.418549 
	C44.807167,398.490875 44.004459,400.885651 42.420174,401.640900 
	C41.376488,402.138458 38.802624,400.618439 37.707294,399.328339 
	C37.131943,398.650604 38.207146,395.278534 38.631939,395.259644 
	C40.962574,395.156097 43.322594,395.713898 45.807205,396.418549 
z"/>
<path fill="#F06F16" opacity="1.000000" stroke="none" 
	d="
M68.512589,394.337219 
	C70.817383,395.060425 72.896553,395.725403 74.575577,396.942383 
	C74.938850,397.205688 74.106483,400.426941 73.403900,400.602631 
	C71.434959,401.095093 68.660187,401.508057 67.271957,400.492126 
	C64.775490,398.665161 65.564377,396.177582 68.512589,394.337219 
z"/>
<path fill="#F97316" opacity="1.000000" stroke="none" 
	d="
M104.160858,426.808624 
	C103.525627,427.157623 103.019676,427.306488 102.296036,427.604858 
	C100.024918,427.675751 97.836388,427.974823 95.991066,427.314606 
	C95.341805,427.082306 94.989647,423.404053 95.436691,423.182098 
	C97.242821,422.285339 99.413605,422.123016 101.923012,422.091949 
	C102.647072,422.702484 102.919037,422.877808 103.212143,423.020355 
	C103.212143,423.020355 103.290413,423.346069 103.275177,423.846802 
	C103.601875,424.942352 103.943817,425.537140 104.285759,426.131958 
	C104.285759,426.131958 104.290146,426.608490 104.160858,426.808624 
z"/>
<path fill="#F06F16" opacity="1.000000" stroke="none" 
	d="
M103.290283,422.728149 
	C102.919037,422.877808 102.647072,422.702484 102.217155,422.330627 
	C102.204636,422.142059 102.371216,422.117218 102.778870,422.016907 
	C103.136101,422.106262 103.252266,422.271088 103.290283,422.728149 
z"/>
<path fill="#F06F16" opacity="1.000000" stroke="none" 
	d="
M104.543503,425.929626 
	C103.943817,425.537140 103.601875,424.942352 103.215881,424.003479 
	C103.714966,424.348694 104.258102,425.037994 104.543503,425.929626 
z"/>
<path fill="#F3893F" opacity="1.000000" stroke="none" 
	d="
M664.680481,410.312592 
	C667.164917,410.517975 669.542542,410.475677 671.251221,411.523773 
	C671.958618,411.957703 671.844971,415.204529 670.988831,416.300110 
	C670.125244,417.405334 667.647339,418.195343 666.280823,417.783295 
	C662.240173,416.565002 662.076904,413.726746 664.680481,410.312592 
z"/>
<path fill="#F3893F" opacity="1.000000" stroke="none" 
	d="
M584.979919,415.690186 
	C584.963318,413.639282 584.963318,412.025177 584.963318,408.785217 
	C587.920837,410.190704 590.357056,410.715637 591.629028,412.223022 
	C592.253906,412.963562 591.204468,416.232788 590.015991,417.044250 
	C589.017151,417.726166 586.719299,416.505432 584.979919,415.690186 
z"/>
<path fill="#F3893F" opacity="1.000000" stroke="none" 
	d="
M695.946533,410.040283 
	C699.298279,409.679443 702.029419,410.266602 701.826965,413.796417 
	C701.605408,417.660400 698.750854,418.321442 694.611328,417.537628 
	C694.914185,415.077026 695.217102,412.615662 695.946533,410.040283 
z"/>
<path fill="#F3893F" opacity="1.000000" stroke="none" 
	d="
M607.322571,416.656189 
	C604.721313,416.694214 602.265930,416.757721 600.098389,415.998932 
	C599.598938,415.824066 599.433350,411.935730 600.262878,411.330322 
	C601.738342,410.253448 605.072021,409.417572 605.856812,410.217926 
	C607.164490,411.551636 607.074524,414.255707 607.322571,416.656189 
z"/>
</svg>