<svg version="1.1" id="Layer_1" xmlns="http://www.w3.org/2000/svg" xmlns:xlink="http://www.w3.org/1999/xlink" x="0px" y="0px"
	 width="100%" viewBox="0 0 768 448" enable-background="new 0 0 768 448" xml:space="preserve">
<path fill="#000000" opacity="1.000000" stroke="none" 
	d="
M268.611084,275.851349 
	C269.933777,275.057343 270.988586,274.518341 271.879791,273.781494 
	C278.105377,268.633942 279.544922,268.714661 286.158020,274.719147 
	C278.054840,291.819397 256.258759,294.148102 244.817551,279.232147 
	C234.766861,266.129028 230.815460,250.732147 227.615540,234.987183 
	C226.965637,231.789413 227.007675,228.387833 225.129456,224.974380 
	C219.642838,230.396255 215.681992,236.388428 214.447708,243.806366 
	C213.360977,250.337463 218.283279,256.290253 225.372391,257.609558 
	C229.732742,258.421021 230.564056,260.616364 229.289474,267.419586 
	C228.507065,271.595825 225.713425,269.881744 223.467773,269.456665 
	C204.177032,265.805267 196.936661,248.624222 206.884048,230.355911 
	C213.532761,218.145599 223.090958,208.456146 233.352173,199.344742 
	C235.934647,197.051636 238.451675,194.684845 241.717224,191.693893 
	C233.657547,190.076370 226.547348,188.856339 219.583038,192.327759 
	C212.944855,195.636658 210.974243,200.572006 213.197662,207.632370 
	C214.462646,211.649292 209.082779,217.816620 205.035995,216.862457 
	C202.944366,216.369293 202.569153,214.268692 202.021133,212.595779 
	C196.124710,194.596115 206.802719,179.443939 225.766632,178.675949 
	C240.679001,178.072021 254.793442,181.753967 268.752045,186.373734 
	C271.728516,187.358826 274.676544,188.429840 278.335541,189.704346 
	C276.420990,182.039673 273.657440,175.630600 267.849915,171.007263 
	C262.306671,166.594376 255.070679,167.630569 250.004395,173.292252 
	C247.152130,176.479675 244.548233,176.112671 239.651505,171.956039 
	C236.205078,169.030502 239.338028,167.166763 240.884766,165.442368 
	C254.003769,150.816559 272.616272,153.379028 283.086975,171.038269 
	C290.955078,184.308105 294.556335,198.950119 297.345032,213.887650 
	C297.707611,215.829971 298.193817,217.749207 298.850769,220.705170 
	C304.164825,214.418823 308.803101,208.701889 309.592712,200.925903 
	C310.221558,194.733154 307.063721,189.236404 300.775909,188.217453 
	C294.277100,187.164322 294.320282,183.520691 294.702362,178.855392 
	C294.796417,177.706909 294.634491,176.499222 295.557343,175.569458 
	C315.127472,175.374695 326.796143,191.740234 319.597900,209.799332 
	C313.684357,224.635468 302.230499,235.232147 290.701324,245.661896 
	C288.131439,247.986694 285.553101,250.302063 282.913208,252.680695 
	C288.229614,256.436340 303.408203,255.051987 307.334534,251.236664 
	C311.339752,247.344696 312.734680,242.464417 310.677765,236.658157 
	C309.274597,232.697327 311.104095,230.412369 317.055847,228.455780 
	C321.281952,227.066483 321.402771,230.640778 322.077393,232.855408 
	C327.626556,251.072266 315.879059,266.779236 296.502502,267.308929 
	C281.581146,267.716797 267.512909,263.924561 253.692657,258.815521 
	C251.541443,258.020264 249.500717,256.774323 247.067734,256.911957 
	C246.927673,268.490509 257.850006,278.298157 268.611084,275.851349 
M237.345673,222.333405 
	C237.888565,225.266678 238.753845,228.182968 238.909637,231.136658 
	C239.274200,238.048477 242.455383,241.935898 249.318604,243.893799 
	C255.622574,245.692154 261.572662,248.749313 267.456360,250.028610 
	C274.024780,242.455032 282.676605,238.250595 288.347870,231.480362 
	C286.589050,222.087234 284.888611,213.005753 283.289856,204.467575 
	C273.626740,201.987122 265.388672,197.088058 256.932495,195.291397 
	C249.849152,202.149918 241.396179,206.728149 234.971268,214.015198 
	C237.116302,216.158218 237.306274,218.798431 237.345673,222.333405 
z"/>
<path fill="#000000" opacity="1.000000" stroke="none" 
	d="
M490.597839,253.883087 
	C494.775818,254.100266 498.627136,253.103729 502.163116,254.560211 
	C503.095520,256.511230 501.898468,257.649658 501.070801,258.826294 
	C491.373596,272.611755 477.420685,276.959503 461.643127,274.880280 
	C443.402679,272.476562 432.955231,262.566315 429.208740,246.291245 
	C424.954285,227.809265 432.614990,210.222488 448.189636,202.716721 
	C465.485138,194.381622 486.367584,198.581558 497.625549,212.730225 
	C503.586945,220.222305 505.392670,229.135498 506.110199,238.387024 
	C506.314240,241.017365 505.200958,242.510147 502.484924,242.651520 
	C500.492004,242.755219 498.499451,242.952026 496.506500,242.954987 
	C482.516266,242.975815 468.525879,242.928497 454.535736,242.974060 
	C451.602936,242.983627 448.160004,242.393616 446.630402,245.813705 
	C445.059784,249.325592 446.963165,252.304077 449.101288,254.944489 
	C455.405792,262.730011 468.955658,264.748993 479.994659,260.039001 
	C483.731903,258.444427 486.103119,254.815063 490.597839,253.883087 
M474.390228,230.687256 
	C477.516205,230.500519 480.716858,231.212982 483.742493,229.823471 
	C486.663971,228.481766 488.176239,226.615723 487.142975,223.132523 
	C485.043762,216.055817 479.244385,211.806976 469.986847,211.181793 
	C461.221069,210.589798 452.697571,211.259338 447.973877,220.195496 
	C444.651093,226.481400 447.325989,230.527954 454.458893,230.650009 
	C460.777679,230.758133 467.099670,230.681351 474.390228,230.687256 
z"/>
<path fill="#000000" opacity="1.000000" stroke="none" 
	d="
M529.347290,208.731232 
	C532.781494,218.338409 536.090759,227.574432 539.439453,236.796127 
	C540.416931,239.487839 541.494324,242.497086 544.929321,242.409500 
	C548.130920,242.327850 548.967346,239.357864 549.880920,236.841293 
	C553.682556,226.368942 557.609924,215.938614 561.175781,205.386276 
	C562.391724,201.787811 564.219482,200.138718 568.015564,200.602905 
	C571.125732,200.983215 574.316101,199.973236 577.422852,200.981888 
	C578.586914,202.954437 577.278931,204.568390 576.704956,206.187851 
	C569.316284,227.032547 561.777893,247.824860 554.525208,268.716492 
	C553.248535,272.394073 551.343384,273.535187 547.633484,273.421478 
	C533.895691,273.000427 537.353882,275.355347 532.800781,263.057037 
	C525.930786,244.500458 519.421204,225.810211 512.800354,207.161911 
	C512.147888,205.324249 511.092133,203.506332 511.734131,201.413330 
	C522.977844,198.587891 526.177856,199.859802 529.347290,208.731232 
z"/>
<path fill="#000000" opacity="1.000000" stroke="none" 
	d="
M421.168396,209.884369 
	C421.453827,213.440536 420.520569,214.951324 416.975983,215.593842 
	C406.101013,217.565186 400.371765,224.711624 400.229980,235.887482 
	C400.095032,246.526031 400.007690,257.171265 400.249695,267.805603 
	C400.350800,272.248596 398.739624,273.555878 394.442352,273.421661 
	C382.478729,273.047882 383.821136,274.740967 383.912842,262.634521 
	C384.002197,250.850586 383.006805,239.033829 384.706635,227.284332 
	C386.916718,212.007660 399.508759,201.131088 414.845001,200.537476 
	C420.069672,200.335236 421.877655,201.984268 421.175507,206.935516 
	C421.059998,207.749969 421.164185,208.595612 421.168396,209.884369 
z"/>
<path fill="#000000" opacity="1.000000" stroke="none" 
	d="
M36.564480,407.396667 
	C33.510422,406.883270 29.534964,408.944305 28.511271,405.717743 
	C27.246431,401.731110 26.891832,397.142090 29.157322,392.572388 
	C32.388638,395.222565 30.879667,398.256470 31.246628,400.852295 
	C31.491329,402.583221 31.609907,404.319336 33.767654,404.540710 
	C35.775303,404.746674 37.674183,404.653900 38.857613,402.409668 
	C42.649384,395.219025 45.908669,394.459625 53.106716,399.166626 
	C57.672863,395.588348 62.617973,394.872284 67.757530,398.430267 
	C68.879486,399.206909 69.497993,397.936157 70.298195,397.506714 
	C72.600494,396.271210 75.073929,396.030151 77.548759,396.543549 
	C80.280739,397.110229 81.999382,398.862549 81.938759,401.777771 
	C81.880646,404.571899 80.398796,406.442200 77.641022,407.185272 
	C72.926636,408.455566 70.575226,407.428955 67.431252,402.263458 
	C67.466560,405.408447 67.814606,408.041962 66.156738,410.255493 
	C64.395493,412.607086 61.885052,412.630524 59.380772,412.425385 
	C56.656727,412.202362 53.776772,412.023224 55.730267,407.815552 
	C56.555630,406.037750 54.281216,405.496857 53.629997,403.414886 
	C49.005363,410.318207 42.514225,406.252411 36.564480,407.396667 
M46.376087,399.105103 
	C44.472363,399.238586 42.500011,399.459961 42.581738,401.991302 
	C42.634796,403.634827 43.859699,404.689758 45.385014,405.140381 
	C47.093231,405.645020 48.344070,404.703461 49.071377,403.304443 
	C50.171455,401.188385 49.278122,399.826355 46.376087,399.105103 
M75.316010,405.279449 
	C77.183319,404.647339 78.549591,403.574768 78.307312,401.384430 
	C78.166664,400.112854 77.225723,399.387360 76.057297,399.032593 
	C74.634613,398.600586 73.349937,399.123810 72.525139,400.190094 
	C70.324142,403.035431 72.441742,404.219116 75.316010,405.279449 
M63.512058,400.965576 
	C61.691761,398.353607 59.568314,398.843903 57.799320,400.783386 
	C56.624134,402.071838 57.168858,403.780548 58.783401,404.417755 
	C61.325741,405.421143 63.335888,404.886475 63.512058,400.965576 
z"/>
<path fill="#000000" opacity="1.000000" stroke="none" 
	d="
M55.267929,423.921631 
	C59.130474,423.502869 63.318947,424.872467 64.970306,419.421204 
	C66.145302,424.496277 72.366653,422.158905 73.975677,426.338715 
	C78.392357,423.146423 86.593948,422.110199 87.613564,424.977661 
	C88.607254,427.772278 89.438286,431.516022 86.759026,433.774139 
	C83.343651,436.652649 77.135445,434.743530 73.916046,430.403809 
	C73.152199,431.608368 74.485405,434.334259 71.726746,433.951080 
	C69.798164,433.683197 70.179977,431.697083 70.013702,430.277893 
	C69.864594,429.005280 70.049438,427.627411 68.645203,426.578217 
	C65.583427,428.280396 68.144592,432.201965 65.519928,433.963318 
	C62.838287,433.536224 63.586670,431.353668 63.570007,429.712341 
	C63.550304,427.771729 63.574215,425.738617 61.080914,425.675629 
	C59.043961,425.624176 57.267204,426.563385 56.427101,428.748718 
	C55.745251,430.522369 56.722012,432.856415 54.641777,434.168335 
	C51.666561,431.315125 51.761597,427.059967 55.267929,423.921631 
M80.651367,432.315094 
	C82.951035,432.104858 84.336754,430.793640 84.426872,428.554962 
	C84.488167,427.032471 83.201256,426.323608 81.778931,426.150421 
	C80.175201,425.955078 78.743271,426.510254 77.990402,427.917572 
	C76.825119,430.095825 78.290848,431.233246 80.651367,432.315094 
z"/>
<path fill="#000000" opacity="1.000000" stroke="none" 
	d="
M129.982468,431.806976 
	C126.257202,434.954132 122.353256,435.601929 118.108223,433.940247 
	C114.189880,432.406494 113.155128,428.936646 113.596077,425.336426 
	C114.128876,420.986389 117.573860,419.363403 121.549217,419.281067 
	C124.511780,419.219666 127.966400,418.917358 128.805481,423.146912 
	C126.706413,424.755280 125.576660,422.666687 124.091606,422.352783 
	C121.640343,421.834656 119.321587,421.836700 117.866318,424.167694 
	C116.622139,426.160614 116.669525,428.459442 118.236839,430.232300 
	C120.128548,432.372131 122.891228,432.759003 124.987595,431.026764 
	C126.837799,429.497925 129.580566,429.670013 130.865585,426.885406 
	C132.635941,423.049072 138.326813,421.984985 141.529083,424.477234 
	C144.095001,426.474243 144.775955,429.095978 142.935913,431.959869 
	C140.914383,435.106293 135.642365,435.739227 132.254761,433.341461 
	C131.582291,432.865479 130.957199,432.322571 129.982468,431.806976 
M135.530396,426.243408 
	C134.009872,427.432312 132.618912,428.738190 134.121796,430.776093 
	C135.051834,432.037231 136.390625,432.825470 138.016113,432.049133 
	C139.414230,431.381378 140.711365,430.275146 140.482819,428.645020 
	C140.146515,426.245941 138.442383,425.429657 135.530396,426.243408 
z"/>
<path fill="#000000" opacity="1.000000" stroke="none" 
	d="
M134.981491,403.951263 
	C131.403671,408.478577 126.315506,409.003357 122.269562,405.028107 
	C119.247238,402.058563 116.007408,402.039276 112.138344,403.401154 
	C114.578575,407.563812 117.261948,403.318512 120.254845,404.136597 
	C119.441422,407.664703 116.720367,407.226440 114.324005,407.448547 
	C110.852638,407.770294 108.906151,405.912903 108.224785,402.867157 
	C107.617508,400.152618 108.832603,397.144135 111.515610,397.044922 
	C118.040779,396.803619 124.589012,397.537811 131.139145,396.683746 
	C132.396622,396.519775 133.570465,397.644623 133.592331,399.309662 
	C132.171967,400.781067 130.833817,399.235596 129.472946,399.191803 
	C127.900665,399.141235 126.444710,399.273712 125.574623,400.784088 
	C125.032677,401.724854 125.134727,402.732208 125.791512,403.587128 
	C126.849113,404.963776 128.320709,405.052948 129.850540,404.657593 
	C131.283279,404.287323 132.636368,403.511627 134.598755,403.941284 
	C134.998444,403.984985 134.981491,403.951263 134.981491,403.951263 
z"/>
<path fill="#000000" opacity="1.000000" stroke="none" 
	d="
M135.010193,403.999268 
	C135.260605,397.864532 137.423630,395.340759 143.218063,396.749969 
	C147.274261,397.736389 150.814774,396.887115 154.582291,396.595886 
	C156.964676,396.411743 159.578018,396.146515 160.586945,398.813477 
	C161.588882,401.461975 162.373306,404.396545 160.333450,407.142548 
	C157.409912,406.270416 158.269211,403.924530 157.950668,402.134827 
	C157.714035,400.805450 157.624527,399.289551 155.928864,399.148560 
	C154.055634,398.992859 153.469925,400.460938 153.072174,401.983734 
	C152.636063,403.653351 153.349014,405.707336 151.456390,406.943359 
	C148.502365,406.727142 149.994171,404.157623 149.257233,402.771027 
	C145.516388,408.636688 140.675476,409.227478 135.242310,404.219543 
	C134.981491,403.951263 134.998444,403.984985 135.010193,403.999268 
M143.988144,404.432404 
	C145.567368,402.933685 145.975357,401.355286 144.077011,399.850403 
	C142.795746,398.834747 141.296982,398.862610 139.878082,399.596008 
	C138.517685,400.299133 137.934555,401.569702 138.590302,402.914337 
	C139.561874,404.906464 141.155243,405.907928 143.988144,404.432404 
z"/>
<path fill="#000000" opacity="1.000000" stroke="none" 
	d="
M106.968765,431.960144 
	C104.977776,434.407928 106.067657,438.778595 101.386086,439.239532 
	C100.984825,435.980225 102.853134,432.786835 100.693329,429.928741 
	C99.541588,428.404663 99.224464,425.922882 96.551582,426.388153 
	C94.232925,426.791779 93.374794,428.520844 93.243965,430.743347 
	C93.178047,431.863068 93.275635,433.118378 91.096710,434.135590 
	C89.572105,430.862274 89.158485,427.254852 91.203011,424.669342 
	C92.666550,422.818481 96.177803,423.695160 98.808708,423.617188 
	C102.356079,423.512054 101.981812,427.487213 104.063782,428.858734 
	C106.804848,428.011078 105.722305,422.967560 110.186676,423.856506 
	C109.971840,426.881165 108.132988,429.108673 106.968765,431.960144 
z"/>
<path fill="#000000" opacity="1.000000" stroke="none" 
	d="
M106.474655,395.072327 
	C106.450928,397.943237 106.442085,397.964294 104.002937,396.939240 
	C101.682297,395.963989 99.437218,394.085815 96.635422,396.395172 
	C98.020287,399.353760 100.998589,398.659393 103.068550,399.681488 
	C104.888580,400.580231 107.028595,401.273132 106.738403,403.736267 
	C106.444893,406.227570 104.574951,407.282196 102.129028,407.362793 
	C98.561157,407.480316 94.953979,407.737885 92.407310,403.769012 
	C96.124748,402.291534 99.515694,406.659302 103.075127,403.636169 
	C101.041428,401.218933 98.028603,401.830048 95.810143,400.579803 
	C93.971519,399.543610 92.228546,398.658417 92.631783,396.177216 
	C93.010986,393.843811 94.716133,392.914001 96.845512,392.637512 
	C100.238014,392.197052 103.472221,392.534180 106.474655,395.072327 
z"/>
<path fill="#000000" opacity="1.000000" stroke="none" 
	d="
M207.286499,410.830933 
	C204.863235,413.039978 203.618347,412.805237 204.504364,409.631653 
	C205.293915,406.803467 204.512238,404.387390 203.262299,402.004303 
	C202.528580,400.605438 202.088272,398.693542 199.820877,399.098938 
	C197.791962,399.461731 196.656738,400.691559 196.301300,402.750061 
	C196.062103,404.135376 196.579819,405.810608 194.989655,406.771393 
	C192.772461,404.464722 192.156494,398.432648 194.276535,397.377472 
	C196.824875,396.109131 199.821701,396.444153 202.588318,396.733582 
	C205.723587,397.061523 205.044617,401.207336 207.535004,402.396851 
	C209.531525,401.011566 208.430603,397.155487 212.779327,396.961273 
	C212.094055,402.116425 209.041672,406.078033 207.286499,410.830933 
z"/>
<path fill="#000000" opacity="1.000000" stroke="none" 
	d="
M45.902306,432.217957 
	C47.529060,431.592010 48.720699,430.346741 50.320591,431.378845 
	C49.135670,434.721191 47.470779,435.598328 43.775402,434.885956 
	C40.524395,434.259308 38.887871,432.128662 38.737068,428.997284 
	C38.585602,425.852142 40.412952,424.076416 43.458107,423.654663 
	C44.756794,423.474823 46.117767,423.454315 47.415932,423.624573 
	C49.750294,423.930695 51.758278,425.105988 51.603649,427.663727 
	C51.456249,430.101837 49.035145,429.758331 47.312683,430.074768 
	C46.043476,430.307922 44.666821,429.665192 43.408138,430.565155 
	C43.205975,432.290253 44.382530,432.324768 45.902306,432.217957 
z"/>
<path fill="#000000" opacity="1.000000" stroke="none" 
	d="
M176.208511,396.446136 
	C176.212738,397.877319 176.203354,398.869720 176.191757,399.862122 
	C176.102371,407.518280 176.101227,407.433289 168.487320,407.525482 
	C164.594177,407.572632 162.442902,405.666931 162.235748,402.031616 
	C162.033875,398.489075 164.285004,396.503326 167.729538,396.273560 
	C170.516769,396.087646 173.474777,396.651184 174.099106,392.994049 
	C176.279755,393.607544 176.006927,394.923859 176.208511,396.446136 
M167.409515,404.884613 
	C170.044113,406.002838 171.470947,404.532410 172.412872,402.393585 
	C172.948120,401.178253 172.304779,400.132751 171.232697,399.463501 
	C169.604828,398.447357 168.034943,398.831421 166.696121,400.000549 
	C164.958267,401.518158 165.088654,403.092987 167.409515,404.884613 
z"/>
<path fill="#000000" opacity="1.000000" stroke="none" 
	d="
M177.494781,400.338013 
	C179.995056,396.918732 187.381531,395.113464 189.943268,397.283325 
	C192.284882,399.266754 191.014099,402.228333 190.991989,404.774353 
	C190.975418,406.683014 189.517868,406.934967 187.892731,407.168823 
	C180.397354,408.247375 178.064499,406.867859 177.494781,400.338013 
M187.105347,401.036743 
	C185.680038,398.832153 183.726715,398.605927 181.608078,399.787170 
	C180.500336,400.404816 180.211472,401.596283 180.773544,402.782806 
	C181.439941,404.189606 182.508728,405.278473 184.170944,405.110931 
	C186.130280,404.913361 187.634277,404.061859 187.105347,401.036743 
z"/>
<path fill="#000000" opacity="1.000000" stroke="none" 
	d="
M149.646439,430.397675 
	C149.964828,424.257416 155.643677,421.291351 160.364761,424.459259 
	C162.503983,425.894714 163.385315,428.032104 162.518356,430.519592 
	C161.549728,433.298828 159.401443,434.792206 156.468613,434.857208 
	C153.417496,434.924805 150.979492,433.766998 149.646439,430.397675 
M157.051910,426.198700 
	C155.011017,425.946411 153.381500,426.368073 153.110611,428.774628 
	C152.947449,430.224060 153.507889,431.392609 154.857147,432.024200 
	C156.466995,432.777802 157.821869,432.099884 158.794647,430.873322 
	C160.230255,429.063141 159.747742,427.521118 157.051910,426.198700 
z"/>
<path fill="#000000" opacity="1.000000" stroke="none" 
	d="
M221.520538,407.229797 
	C217.534012,405.383118 216.363724,402.606384 218.106659,399.007721 
	C219.337311,396.466766 225.236816,395.447754 227.942017,397.208557 
	C230.000336,398.548218 231.375061,400.484009 230.697968,403.059937 
	C230.075439,405.428284 228.621490,407.209015 225.891113,407.330139 
	C224.574783,407.388580 223.252808,407.320496 221.520538,407.229797 
M227.538712,402.436554 
	C227.328262,398.977081 225.309631,398.240845 222.437759,399.284637 
	C220.576965,399.961029 219.766190,401.553467 221.131821,403.208496 
	C223.080673,405.570374 225.306931,405.636566 227.538712,402.436554 
z"/>
<path fill="#000000" opacity="1.000000" stroke="none" 
	d="
M233.558350,397.181641 
	C242.430984,396.195099 245.385849,398.833191 243.604538,405.620667 
	C243.427887,406.293793 243.020355,406.777130 242.111572,406.857605 
	C240.026321,405.857056 240.944534,403.780243 240.702850,402.131531 
	C240.470886,400.549133 240.118958,399.041199 238.216751,399.031616 
	C236.460724,399.022858 235.651245,400.304230 235.388245,401.930542 
	C235.133026,403.508728 235.654541,405.255676 234.420700,406.652405 
	C231.477280,404.327972 231.271011,402.741150 233.558350,397.181641 
z"/>
<path fill="#000000" opacity="1.000000" stroke="none" 
	d="
M35.246353,419.582977 
	C37.076378,419.658081 38.596134,419.231506 40.961079,420.764343 
	C31.376301,421.919189 37.487049,430.351318 33.638031,434.530792 
	C28.824177,430.735840 35.702614,422.150177 25.877813,420.697723 
	C29.691496,419.086365 32.328266,419.793793 35.246353,419.582977 
z"/>
<path fill="#000000" opacity="1.000000" stroke="none" 
	d="
M148.061386,423.382294 
	C147.802734,427.150055 149.046082,430.688721 146.038910,435.189087 
	C144.268188,429.366974 144.400925,424.893707 145.445724,420.311310 
	C148.005371,420.152405 147.781738,421.734436 148.061386,423.382294 
z"/>
<path fill="#000000" opacity="1.000000" stroke="none" 
	d="
M171.000519,424.623535 
	C167.674820,426.919281 167.440308,430.741241 166.089249,434.402832 
	C162.749359,431.287598 163.931229,427.987366 164.957550,425.423004 
	C165.900421,423.067200 168.700470,423.524200 171.000519,424.623535 
z"/>
</svg>