<svg version="1.1" id="Layer_1" xmlns="http://www.w3.org/2000/svg" xmlns:xlink="http://www.w3.org/1999/xlink" x="0px" y="0px"
	 width="100%" viewBox="0 0 528 288" enable-background="new 0 0 528 288" xml:space="preserve">
<path fill="#000000" opacity="1.000000" stroke="none" 
	d="
M180.842468,121.018837 
	C181.530594,98.608490 200.252106,93.502449 217.143051,95.029549 
	C232.525711,96.420288 247.075104,101.015099 262.565918,106.847923 
	C259.540802,98.058411 256.916443,90.310600 249.129807,85.794250 
	C243.483780,82.519463 237.567749,83.878456 232.575684,89.345261 
	C229.638977,92.561211 226.101562,92.038071 221.378799,87.528641 
	C218.100037,84.397980 221.697922,82.760208 223.195801,81.109360 
	C235.893631,67.114647 252.739716,67.902863 264.028900,83.064301 
	C273.088898,95.231895 277.198761,109.449127 280.347412,124.012512 
	C281.326050,128.539001 282.301758,133.066132 283.301880,137.699783 
	C289.727875,133.837204 295.643005,121.777893 294.651611,114.991753 
	C293.925049,110.018265 290.146515,104.995369 285.092468,104.731255 
	C278.823914,104.403687 278.596344,101.031967 279.060059,96.483139 
	C279.209229,95.019966 278.812866,93.471336 279.734253,92.143158 
	C298.745697,89.424782 312.647583,108.432236 305.197601,126.985878 
	C299.978851,139.982849 290.780914,150.057617 280.817444,159.494827 
	C276.026764,164.032440 270.947205,168.265045 265.333649,173.222931 
	C273.581177,174.936829 280.868134,175.881821 288.134277,172.974457 
	C295.259308,170.123581 298.901215,164.184998 296.238831,157.039291 
	C294.239288,151.672668 296.197144,149.783875 300.354706,148.041916 
	C301.718018,147.470703 302.849731,146.339554 304.457520,146.363068 
	C311.508331,153.175415 310.182281,171.263916 302.071716,178.743225 
	C292.393158,187.668488 280.873474,188.229507 268.831757,186.858276 
	C254.837631,185.264725 241.648026,180.661880 227.839386,175.322815 
	C230.411499,182.877899 233.154633,189.528671 239.013290,194.312454 
	C244.762695,199.007019 251.730789,198.918610 256.399170,193.254211 
	C259.642029,189.319519 262.155060,189.110962 265.765991,192.021011 
	C267.153625,193.139328 269.186218,193.434311 270.003021,195.281830 
	C261.303375,211.816147 241.960327,214.601364 230.735260,203.760620 
	C220.829605,194.194138 216.422623,181.879089 212.820419,169.175568 
	C210.481567,160.927353 208.782486,152.497742 206.582855,143.250137 
	C200.977280,149.189148 196.330765,154.777191 195.408066,162.358170 
	C194.415894,170.509918 198.591507,175.598618 207.136627,177.531174 
	C211.259460,178.463593 212.279785,181.160294 211.044907,187.139450 
	C210.210495,191.179565 207.574738,190.205887 204.882324,189.731323 
	C184.033264,186.056290 177.562195,166.974915 187.480637,149.205582 
	C194.389847,136.827393 203.691971,126.471031 214.388245,117.279991 
	C217.511154,114.596573 220.541489,111.805412 224.389389,108.372017 
	C215.804626,106.996742 208.113266,105.685913 200.673553,109.006920 
	C194.069000,111.955124 191.750702,118.592361 194.188065,125.880333 
	C195.635483,130.208252 193.624786,132.768784 187.186569,134.543320 
	C182.894531,135.726318 183.406372,131.931030 182.505600,129.745163 
	C181.419876,127.110435 180.919662,124.318611 180.842468,121.018837 
M227.613297,122.130089 
	C224.726913,124.634842 221.793579,127.088570 218.982285,129.674957 
	C218.122314,130.466110 216.852554,131.065201 217.591980,132.926529 
	C220.001404,138.991730 219.884094,145.593079 221.226303,151.905075 
	C222.224960,156.601349 222.895920,160.146255 228.744400,161.941879 
	C236.458694,164.310349 243.876007,167.808517 250.691620,169.803070 
	C257.263275,161.394241 266.828674,157.058624 273.180969,149.233109 
	C271.416199,147.706726 271.233185,145.461380 271.019073,143.406281 
	C270.588623,139.274567 269.816132,135.206192 269.242981,131.107529 
	C268.395111,125.043854 266.459625,120.938446 259.627350,119.126831 
	C252.653290,117.277618 245.982391,114.107277 238.953232,111.905640 
	C236.396149,116.624283 231.699890,118.489075 227.613297,122.130089 
z"/>
</svg>