<svg version="1.1" id="Layer_1" xmlns="http://www.w3.org/2000/svg" xmlns:xlink="http://www.w3.org/1999/xlink" x="0px" y="0px"
	 width="100%" viewBox="0 0 1585 825" enable-background="new 0 0 1585 825" xml:space="preserve">
<path fill="#1E3A8A" opacity="1.000000" stroke="none" 
	d="
M1054.000000,826.000000 
	C702.666687,826.000000 351.833344,826.000000 1.000000,826.000000 
	C1.000000,551.000000 1.000000,276.000000 1.000000,1.000000 
	C529.333313,1.000000 1057.666626,1.000000 1586.000000,1.000000 
	C1586.000000,276.000000 1586.000000,551.000000 1586.000000,826.000000 
	C1408.833374,826.000000 1231.666626,826.000000 1054.000000,826.000000 
M1016.971130,384.425812 
	C1016.654175,384.260925 1016.337219,384.096069 1016.007507,383.992432 
	C1016.007507,383.992432 1016.068726,383.979401 1016.004272,383.408936 
	C1015.670410,383.252594 1015.336609,383.096252 1014.996338,383.003601 
	C1014.996338,383.003601 1015.059998,382.997192 1014.963623,382.430969 
	C1014.647400,382.264282 1014.331116,382.097595 1014.006958,381.992767 
	C1014.006958,381.992767 1014.066589,381.974548 1013.909485,381.326874 
	C1012.274536,380.190125 1010.639587,379.053375 1009.015747,377.984711 
	C1009.015747,377.984711 1009.082520,377.967590 1008.883057,377.328094 
	C1007.928040,376.843719 1006.973083,376.359375 1006.044250,375.969971 
	C1006.044250,375.969971 1006.138794,375.942291 1006.018921,375.370758 
	C1005.671509,375.233063 1005.324097,375.095367 1004.987000,375.021820 
	C1004.987000,375.021820 1005.049622,375.004608 1004.704895,374.412018 
	C1003.465271,373.905762 1002.225708,373.399506 1001.042969,373.005157 
	C1001.042969,373.005157 1001.154785,372.948059 1000.971375,372.408112 
	C1000.642029,372.258484 1000.312683,372.108826 999.986511,372.018433 
	C999.986511,372.018433 1000.043457,372.001862 999.753662,371.436890 
	C999.156433,371.274719 998.559265,371.112579 997.990784,371.024994 
	C997.990784,371.024994 998.065674,370.996979 997.711548,370.468079 
	C997.131714,370.294495 996.551819,370.120911 995.995850,370.011536 
	C995.995850,370.011536 996.058838,369.984619 995.593750,369.491547 
	C994.725586,369.296021 993.857483,369.100525 993.048218,368.989960 
	C993.048218,368.989960 993.132812,368.930573 992.811768,368.297089 
	C991.197388,367.840088 989.583008,367.383087 988.007996,366.999573 
	C988.007996,366.999573 988.081360,366.960052 987.661011,366.376740 
	C984.075500,365.619934 980.490051,364.863098 976.132019,364.001587 
	C965.905823,361.601379 955.707825,362.168823 945.443665,363.950714 
	C922.554504,367.924377 904.391357,378.907623 892.887817,399.494537 
	C883.658081,416.012177 881.284302,433.839172 883.796753,452.478943 
	C887.208496,477.791504 899.562805,497.105835 922.442627,508.814240 
	C940.997009,518.309204 960.788452,520.065063 981.182678,516.042053 
	C1003.564087,511.627075 1021.275818,500.511780 1032.828857,480.445465 
	C1033.525879,479.234955 1033.892334,477.834290 1034.834961,475.457062 
	C1027.041138,475.457062 1020.100952,475.644562 1013.176575,475.393341 
	C1008.287048,475.215942 1004.238586,475.908081 1000.827942,480.077118 
	C998.707214,482.669373 995.456604,484.560944 992.383057,486.113647 
	C972.776062,496.018677 953.092346,495.558075 932.949951,485.586334 
	C931.967285,485.031860 930.984558,484.477386 930.011414,483.991669 
	C930.011414,483.991669 930.079590,483.978394 929.961609,483.423431 
	C929.637695,483.267914 929.313782,483.112396 928.987915,483.015106 
	C928.987915,483.015106 929.044556,483.001587 928.818298,482.370880 
	C926.561829,480.221741 924.305359,478.072601 922.021179,475.983124 
	C922.021179,475.983124 922.086670,475.976593 922.129517,475.318481 
	C921.432312,474.524658 920.735046,473.730804 920.007874,472.991211 
	C920.007874,472.991211 920.069763,472.989136 920.073669,472.194824 
	C916.872192,465.400970 915.529541,458.801666 922.005798,452.999695 
	C922.005798,452.999695 921.977417,453.073425 922.831726,453.067444 
	C925.435364,452.692596 928.038269,451.996948 930.642700,451.991394 
	C964.891968,451.918457 999.141418,451.957611 1033.390747,451.903168 
	C1035.279297,451.900146 1037.166992,451.322784 1038.999878,450.999817 
	C1038.999878,450.999817 1039.013794,451.054871 1039.754883,450.595367 
	C1038.994019,440.750763 1039.323730,430.655731 1037.138428,421.138153 
	C1035.281982,413.053314 1030.524048,405.634674 1027.020752,397.979950 
	C1027.020752,397.979950 1027.086060,397.985657 1027.151978,397.271454 
	C1025.784180,395.487732 1024.416260,393.703979 1023.018616,391.978851 
	C1023.018616,391.978851 1023.084229,391.974579 1023.064392,391.370270 
	C1022.722107,391.211487 1022.379883,391.052673 1022.039551,390.970032 
	C1022.039551,390.970032 1022.115601,390.966553 1022.114014,390.278748 
	C1021.083618,389.163605 1020.053223,388.048462 1019.006042,386.993256 
	C1019.006042,386.993256 1019.067749,386.984680 1018.987915,386.415924 
	C1018.664185,386.254913 1018.340454,386.093903 1018.004639,385.994354 
	C1018.004639,385.994354 1018.066528,385.984711 1017.998718,385.413879 
	C1017.667664,385.254974 1017.336670,385.096069 1016.999878,385.000702 
	C1016.999878,385.000702 1017.063232,384.993378 1016.971130,384.425812 
M831.142273,411.518341 
	C831.142273,411.518341 831.103699,411.391174 831.716736,410.892517 
	C839.163635,401.558746 848.912781,396.556244 860.772400,395.943604 
	C864.324402,395.760132 866.474792,395.138550 866.367310,390.979828 
	C866.186829,383.992554 866.277222,376.997192 866.320312,370.005676 
	C866.338379,367.074890 865.019287,365.944092 862.082764,365.832764 
	C850.398926,365.389832 839.087219,367.189148 828.719238,372.563416 
	C804.717407,385.004852 793.316895,405.585663 792.732544,432.048706 
	C792.170410,457.507263 792.599670,482.987854 792.618286,508.458771 
	C792.619568,510.233276 792.827698,512.007690 792.952820,513.991333 
	C802.837891,513.991333 812.279358,513.991333 822.575806,513.684937 
	C822.755310,511.716492 823.085510,509.748413 823.090698,507.779510 
	C823.132935,491.650024 823.223511,475.519409 823.083313,459.391022 
	C822.950500,444.122345 822.547729,428.854858 829.006836,414.474548 
	C829.006836,414.474548 829.019470,414.510315 829.418213,414.032166 
	C829.827148,413.367523 830.236023,412.702911 830.942505,411.783264 
	C830.942505,411.783264 831.081055,411.416748 831.142273,411.518341 
M446.373047,497.146149 
	C455.259430,501.545990 464.627258,503.960632 475.181732,504.402954 
	C475.181732,496.759308 475.181732,489.510437 475.181732,481.915375 
	C472.826660,481.623352 470.195007,481.304321 467.565369,480.969788 
	C451.779480,478.961456 441.765472,465.056519 444.725739,449.368073 
	C446.664093,439.095154 451.986176,430.485352 457.979279,422.228180 
	C461.303528,417.648010 464.918762,413.279053 468.550507,408.625732 
	C472.181488,425.363403 475.283905,441.339996 479.158173,457.127167 
	C484.826996,480.226837 492.920776,502.422668 507.269348,521.740967 
	C518.186829,536.439819 532.541748,544.911194 551.429199,543.017029 
	C569.799866,541.174622 581.982422,529.850647 592.222473,515.219727 
	C585.652344,511.352478 579.384521,507.663147 572.979858,503.893250 
	C571.730042,505.653198 570.747131,507.170471 569.633606,508.584961 
	C557.440552,524.073730 539.390198,525.238953 526.399902,510.425262 
	C520.700745,503.926117 516.774475,495.780090 512.581909,488.088196 
	C510.235565,483.783386 508.991730,478.877625 507.243225,474.221619 
	C524.324280,480.055603 540.496948,486.324219 557.105225,491.067902 
	C579.121704,497.356293 601.494873,501.124329 624.648438,497.072266 
	C647.735413,493.031830 667.328430,473.915894 667.395630,450.128510 
	C667.426025,439.360321 666.072510,429.019897 660.054016,419.337921 
	C653.426941,423.002411 647.108337,426.496368 640.857117,429.953003 
	C641.765198,432.001312 642.390564,433.359924 642.974121,434.736298 
	C650.570557,452.651367 642.973145,469.080170 624.235046,474.196442 
	C609.759888,478.148773 595.363159,475.441223 579.818604,472.674561 
	C582.362793,470.567749 583.995728,469.251495 585.589966,467.889862 
	C604.224792,451.973145 622.680542,435.855743 638.202026,416.753784 
	C647.796753,404.945648 656.411743,392.482849 661.163696,377.814423 
	C668.055603,356.540253 662.475769,336.198364 646.382751,324.432220 
	C636.057739,316.883301 624.331177,313.079620 611.230469,312.432220 
	C611.230469,319.929535 611.230469,327.331604 611.230469,334.766449 
	C613.393250,334.983582 615.219604,335.129578 617.036072,335.355072 
	C635.346497,337.628021 645.641479,352.972900 640.439392,370.739502 
	C636.578247,383.926544 628.850281,394.984009 620.077271,405.350372 
	C619.420715,406.126129 618.487793,406.667969 617.606445,407.380676 
	C615.323242,396.036011 613.410706,385.069916 610.856873,374.255280 
	C608.296570,363.413300 605.520874,352.584564 602.081665,341.996216 
	C596.246460,324.031281 588.708557,306.857727 576.624573,291.989014 
	C557.893066,268.941071 526.692627,266.735138 505.360748,287.282440 
	C501.131378,291.356262 497.537140,296.089508 493.334290,300.878387 
	C500.611725,305.299469 506.822968,309.072845 513.056396,312.859680 
	C515.019165,310.457306 516.684875,308.391907 518.378723,306.349854 
	C528.710266,293.894409 544.309387,292.703125 556.839233,302.935181 
	C563.955872,308.746735 568.139404,316.437561 572.007263,324.348267 
	C574.920105,330.305817 577.073181,336.634827 579.886658,343.595795 
	C567.156372,339.303802 555.842773,335.370392 544.452454,331.673370 
	C518.771423,323.338074 492.629791,317.705780 465.415283,320.048340 
	C434.307404,322.726044 413.647980,344.893463 419.419067,379.348724 
	C420.434113,385.408783 423.064209,391.198334 425.101105,397.591980 
	C432.660980,393.710266 439.074951,390.416931 445.535004,387.099945 
	C444.339783,384.226532 443.419464,382.094238 442.561035,379.937317 
	C436.408569,364.478027 441.829529,350.542633 457.299286,344.308899 
	C472.965027,337.996155 488.925507,341.076263 505.651917,344.204865 
	C503.780457,345.849030 502.564148,346.892090 501.375549,347.965820 
	C489.759613,358.459229 477.752167,368.556885 466.628723,379.548950 
	C450.089294,395.893188 435.511200,413.765259 426.299286,435.541504 
	C416.560608,458.563049 424.789154,485.349396 446.373047,497.146149 
M1074.148071,365.840210 
	C1066.782349,365.840210 1059.416504,365.840210 1051.628418,365.840210 
	C1052.031616,367.784119 1052.090210,368.434082 1052.301147,369.030121 
	C1058.234375,385.789368 1064.161621,402.550659 1070.133545,419.296143 
	C1080.905273,449.500916 1091.743896,479.681915 1102.434570,509.915283 
	C1103.540649,513.043152 1105.052490,514.473022 1108.500488,514.379578 
	C1116.161133,514.171875 1123.833008,514.222351 1131.496704,514.362671 
	C1134.672485,514.420837 1136.077515,513.179382 1137.160645,510.132446 
	C1152.464233,467.084747 1167.940308,424.098419 1183.336792,381.083679 
	C1185.025024,376.367035 1186.478271,371.566345 1188.355591,365.844238 
	C1179.302612,365.844238 1171.509155,365.978394 1163.723755,365.785553 
	C1160.041138,365.694305 1158.161133,366.834259 1156.846558,370.561523 
	C1148.335938,394.690247 1139.523193,418.712494 1130.807739,442.769012 
	C1128.489624,449.167542 1124.516235,452.703552 1119.685425,452.678375 
	C1114.955566,452.653717 1110.966675,448.885376 1108.906494,443.011169 
	C1100.605713,419.343475 1092.069824,395.756989 1083.963501,372.023376 
	C1082.331543,367.245270 1080.056641,364.980743 1074.148071,365.840210 
z"/>
<path fill="#F0F2F5" opacity="1.000000" stroke="none" 
	d="
M446.044922,496.977478 
	C424.789154,485.349396 416.560608,458.563049 426.299286,435.541504 
	C435.511200,413.765259 450.089294,395.893188 466.628723,379.548950 
	C477.752167,368.556885 489.759613,358.459229 501.375549,347.965820 
	C502.564148,346.892090 503.780457,345.849030 505.651917,344.204865 
	C488.925507,341.076263 472.965027,337.996155 457.299286,344.308899 
	C441.829529,350.542633 436.408569,364.478027 442.561035,379.937317 
	C443.419464,382.094238 444.339783,384.226532 445.535004,387.099945 
	C439.074951,390.416931 432.660980,393.710266 425.101105,397.591980 
	C423.064209,391.198334 420.434113,385.408783 419.419067,379.348724 
	C413.647980,344.893463 434.307404,322.726044 465.415283,320.048340 
	C492.629791,317.705780 518.771423,323.338074 544.452454,331.673370 
	C555.842773,335.370392 567.156372,339.303802 579.886658,343.595795 
	C577.073181,336.634827 574.920105,330.305817 572.007263,324.348267 
	C568.139404,316.437561 563.955872,308.746735 556.839233,302.935181 
	C544.309387,292.703125 528.710266,293.894409 518.378723,306.349854 
	C516.684875,308.391907 515.019165,310.457306 513.056396,312.859680 
	C506.822968,309.072845 500.611725,305.299469 493.334290,300.878387 
	C497.537140,296.089508 501.131378,291.356262 505.360748,287.282440 
	C526.692627,266.735138 557.893066,268.941071 576.624573,291.989014 
	C588.708557,306.857727 596.246460,324.031281 602.081665,341.996216 
	C605.520874,352.584564 608.296570,363.413300 610.856873,374.255280 
	C613.410706,385.069916 615.323242,396.036011 617.606445,407.380676 
	C618.487793,406.667969 619.420715,406.126129 620.077271,405.350372 
	C628.850281,394.984009 636.578247,383.926544 640.439392,370.739502 
	C645.641479,352.972900 635.346497,337.628021 617.036072,335.355072 
	C615.219604,335.129578 613.393250,334.983582 611.230469,334.766449 
	C611.230469,327.331604 611.230469,319.929535 611.230469,312.432220 
	C624.331177,313.079620 636.057739,316.883301 646.382751,324.432220 
	C662.475769,336.198364 668.055603,356.540253 661.163696,377.814423 
	C656.411743,392.482849 647.796753,404.945648 638.202026,416.753784 
	C622.680542,435.855743 604.224792,451.973145 585.589966,467.889862 
	C583.995728,469.251495 582.362793,470.567749 579.818604,472.674561 
	C595.363159,475.441223 609.759888,478.148773 624.235046,474.196442 
	C642.973145,469.080170 650.570557,452.651367 642.974121,434.736298 
	C642.390564,433.359924 641.765198,432.001312 640.857117,429.953003 
	C647.108337,426.496368 653.426941,423.002411 660.054016,419.337921 
	C666.072510,429.019897 667.426025,439.360321 667.395630,450.128510 
	C667.328430,473.915894 647.735413,493.031830 624.648438,497.072266 
	C601.494873,501.124329 579.121704,497.356293 557.105225,491.067902 
	C540.496948,486.324219 524.324280,480.055603 507.243225,474.221619 
	C508.991730,478.877625 510.235565,483.783386 512.581909,488.088196 
	C516.774475,495.780090 520.700745,503.926117 526.399902,510.425262 
	C539.390198,525.238953 557.440552,524.073730 569.633606,508.584961 
	C570.747131,507.170471 571.730042,505.653198 572.979858,503.893250 
	C579.384521,507.663147 585.652344,511.352478 592.222473,515.219727 
	C581.982422,529.850647 569.799866,541.174622 551.429199,543.017029 
	C532.541748,544.911194 518.186829,536.439819 507.269348,521.740967 
	C492.920776,502.422668 484.826996,480.226837 479.158173,457.127167 
	C475.283905,441.339996 472.181488,425.363403 468.550507,408.625732 
	C464.918762,413.279053 461.303528,417.648010 457.979279,422.228180 
	C451.986176,430.485352 446.664093,439.095154 444.725739,449.368073 
	C441.765472,465.056519 451.779480,478.961456 467.565369,480.969788 
	C470.195007,481.304321 472.826660,481.623352 475.181732,481.915375 
	C475.181732,489.510437 475.181732,496.759308 475.181732,504.402954 
	C464.627258,503.960632 455.259430,501.545990 446.044922,496.977478 
M588.328491,436.841034 
	C593.457092,432.139771 598.585754,427.438507 604.447266,422.065430 
	C601.301819,422.278992 599.234924,422.419312 596.573730,422.600006 
	C595.616882,415.883453 594.780640,409.317719 593.723206,402.787781 
	C592.659851,396.221588 591.487488,389.668396 590.157654,383.151367 
	C588.867981,376.831329 587.317566,370.564514 585.626709,363.157715 
	C584.067261,366.049164 583.165955,367.720306 582.409241,369.123383 
	C563.718750,362.247314 545.389648,355.504150 527.060547,348.761017 
	C526.838806,349.230896 526.617126,349.700745 526.395386,350.170624 
	C527.255249,351.683075 528.115112,353.195526 529.087585,354.906097 
	C512.865234,366.855957 497.050781,379.013092 482.080780,394.243225 
	C485.544495,393.846863 487.510468,393.621887 489.152039,393.434021 
	C492.688782,412.940674 496.222473,432.430450 499.756165,451.920197 
	C500.306366,451.870331 500.856567,451.820496 501.406738,451.770630 
	C502.111542,450.322021 502.816345,448.873444 503.636444,447.187836 
	C522.327820,455.300415 540.902344,463.470978 561.805908,468.225708 
	C559.967712,465.509033 558.775085,463.746399 557.328979,461.609222 
	C567.562378,453.420074 577.659302,445.340179 588.328491,436.841034 
z"/>
<path fill="#F7711B" opacity="1.000000" stroke="none" 
	d="
M933.452209,486.088593 
	C953.092346,495.558075 972.776062,496.018677 992.383057,486.113647 
	C995.456604,484.560944 998.707214,482.669373 1000.827942,480.077118 
	C1004.238586,475.908081 1008.287048,475.215942 1013.176575,475.393341 
	C1020.100952,475.644562 1027.041138,475.457062 1034.834961,475.457062 
	C1033.892334,477.834290 1033.525879,479.234955 1032.828857,480.445465 
	C1021.275818,500.511780 1003.564087,511.627075 981.182678,516.042053 
	C960.788452,520.065063 940.997009,518.309204 922.442627,508.814240 
	C899.562805,497.105835 887.208496,477.791504 883.796753,452.478943 
	C881.284302,433.839172 883.658081,416.012177 892.887817,399.494537 
	C904.391357,378.907623 922.554504,367.924377 945.443665,363.950714 
	C955.707825,362.168823 965.905823,361.601379 976.841309,364.242188 
	C981.060791,365.308533 984.571106,366.134277 988.081360,366.960052 
	C988.081360,366.960052 988.007996,366.999573 988.248779,367.194519 
	C990.037292,367.903137 991.585022,368.416870 993.132812,368.930573 
	C993.132812,368.930573 993.048218,368.989960 993.259277,369.187012 
	C994.333130,369.584229 995.195984,369.784424 996.058838,369.984619 
	C996.058838,369.984619 995.995850,370.011536 996.161682,370.235016 
	C996.906921,370.638000 997.486267,370.817505 998.065674,370.996979 
	C998.065674,370.996979 997.990784,371.024994 998.166138,371.229797 
	C998.908813,371.623657 999.476135,371.812744 1000.043457,372.001831 
	C1000.043457,372.001862 999.986511,372.018433 1000.083069,372.247131 
	C1000.504700,372.633270 1000.829712,372.790649 1001.154785,372.948059 
	C1001.154785,372.948059 1001.042969,373.005157 1001.244873,373.191162 
	C1002.647766,373.919678 1003.848694,374.462128 1005.049622,375.004608 
	C1005.049622,375.004608 1004.987000,375.021820 1005.090088,375.239075 
	C1005.508423,375.618286 1005.823608,375.780273 1006.138794,375.942291 
	C1006.138794,375.942291 1006.044250,375.969971 1006.196228,376.199951 
	C1007.259644,376.942474 1008.171082,377.455048 1009.082520,377.967590 
	C1009.082520,377.967590 1009.015747,377.984711 1009.154053,378.253357 
	C1010.883789,379.672821 1012.475159,380.823669 1014.066589,381.974548 
	C1014.066589,381.974548 1014.006958,381.992767 1014.086548,382.221710 
	C1014.464111,382.632812 1014.762024,382.815002 1015.059998,382.997192 
	C1015.059998,382.997192 1014.996338,383.003601 1015.077820,383.231018 
	C1015.462463,383.632111 1015.765564,383.805756 1016.068726,383.979401 
	C1016.068726,383.979401 1016.007507,383.992432 1016.085571,384.223083 
	C1016.463562,384.633606 1016.763428,384.813477 1017.063232,384.993347 
	C1017.063232,384.993378 1016.999878,385.000702 1017.081909,385.227234 
	C1017.464783,385.630768 1017.765686,385.807739 1018.066528,385.984711 
	C1018.066528,385.984711 1018.004639,385.994354 1018.082031,386.225433 
	C1018.462219,386.632568 1018.764954,386.808624 1019.067749,386.984680 
	C1019.067749,386.984680 1019.006042,386.993256 1019.057007,387.292084 
	C1020.110474,388.716125 1021.113037,389.841339 1022.115601,390.966553 
	C1022.115601,390.966553 1022.039551,390.970032 1022.132812,391.179596 
	C1022.512146,391.584290 1022.798218,391.779449 1023.084229,391.974579 
	C1023.084229,391.974579 1023.018616,391.978851 1023.068176,392.291565 
	C1024.440552,394.398102 1025.763306,396.191895 1027.086060,397.985657 
	C1027.086060,397.985657 1027.020752,397.979950 1027.054443,398.315338 
	C1036.061157,414.981384 1039.427734,432.587952 1039.013794,451.054871 
	C1039.013794,451.054871 1038.999878,450.999817 1038.555176,451.008789 
	C1002.043213,451.043823 965.975708,451.028595 929.908997,451.180908 
	C927.262512,451.192078 924.621155,452.414215 921.977417,453.073425 
	C921.977417,453.073425 922.005798,452.999695 921.690186,453.047150 
	C913.775757,456.324677 914.971558,468.112549 920.069763,472.989136 
	C920.069763,472.989136 920.007874,472.991211 920.028320,473.291473 
	C920.728027,474.386688 921.407349,475.181641 922.086670,475.976562 
	C922.086670,475.976593 922.021179,475.983124 922.071533,476.294922 
	C924.429504,478.738342 926.737000,480.869965 929.044556,483.001587 
	C929.044556,483.001587 928.987915,483.015106 929.066040,483.247742 
	C929.455994,483.646393 929.767822,483.812378 930.079590,483.978394 
	C930.079590,483.978394 930.011414,483.991669 930.170410,484.271118 
	C931.370361,485.063263 932.411316,485.575928 933.452209,486.088593 
M954.499939,428.231995 
	C964.313354,428.232483 974.134827,428.465973 983.936707,428.130768 
	C988.523682,427.973907 993.155762,427.035553 997.615723,425.870575 
	C1001.921021,424.746063 1004.115906,421.596436 1003.984131,416.939606 
	C1003.625732,404.278198 996.418396,396.309509 985.738464,391.191925 
	C972.964233,385.070862 959.323059,384.754303 945.833984,387.830841 
	C932.208618,390.938477 921.929504,398.470215 918.752380,413.127167 
	C917.147278,420.532349 920.130981,425.885620 927.684875,426.891815 
	C936.198364,428.025757 944.887329,427.842407 954.499939,428.231995 
z"/>
<path fill="#F7711B" opacity="1.000000" stroke="none" 
	d="
M1074.598389,365.840576 
	C1080.056641,364.980743 1082.331543,367.245270 1083.963501,372.023376 
	C1092.069824,395.756989 1100.605713,419.343475 1108.906494,443.011169 
	C1110.966675,448.885376 1114.955566,452.653717 1119.685425,452.678375 
	C1124.516235,452.703552 1128.489624,449.167542 1130.807739,442.769012 
	C1139.523193,418.712494 1148.335938,394.690247 1156.846558,370.561523 
	C1158.161133,366.834259 1160.041138,365.694305 1163.723755,365.785553 
	C1171.509155,365.978394 1179.302612,365.844238 1188.355591,365.844238 
	C1186.478271,371.566345 1185.025024,376.367035 1183.336792,381.083679 
	C1167.940308,424.098419 1152.464233,467.084747 1137.160645,510.132446 
	C1136.077515,513.179382 1134.672485,514.420837 1131.496704,514.362671 
	C1123.833008,514.222351 1116.161133,514.171875 1108.500488,514.379578 
	C1105.052490,514.473022 1103.540649,513.043152 1102.434570,509.915283 
	C1091.743896,479.681915 1080.905273,449.500916 1070.133545,419.296143 
	C1064.161621,402.550659 1058.234375,385.789368 1052.301147,369.030121 
	C1052.090210,368.434082 1052.031616,367.784119 1051.628418,365.840210 
	C1059.416504,365.840210 1066.782349,365.840210 1074.598389,365.840576 
z"/>
<path fill="#F87218" opacity="1.000000" stroke="none" 
	d="
M829.019470,414.510315 
	C829.019470,414.510315 829.006836,414.474548 828.741089,414.731598 
	C823.374939,422.811890 822.017761,431.580170 821.985229,440.683929 
	C821.897949,465.119720 821.809082,489.555542 821.720825,513.991333 
	C812.279358,513.991333 802.837891,513.991333 792.952820,513.991333 
	C792.827698,512.007690 792.619568,510.233276 792.618286,508.458771 
	C792.599670,482.987854 792.170410,457.507263 792.732544,432.048706 
	C793.316895,405.585663 804.717407,385.004852 828.719238,372.563416 
	C839.087219,367.189148 850.398926,365.389832 862.082764,365.832764 
	C865.019287,365.944092 866.338379,367.074890 866.320312,370.005676 
	C866.277222,376.997192 866.186829,383.992554 866.367310,390.979828 
	C866.474792,395.138550 864.324402,395.760132 860.772400,395.943604 
	C848.912781,396.556244 839.163635,401.558746 831.395508,411.118591 
	C831.074341,411.344696 831.081055,411.416748 831.081055,411.416748 
	C831.081055,411.416748 830.942505,411.783264 830.524536,412.051453 
	C829.744202,413.049866 829.381836,413.780090 829.019470,414.510315 
z"/>
<path fill="#EF4E84" opacity="1.000000" stroke="none" 
	d="
M922.404541,453.070435 
	C924.621155,452.414215 927.262512,451.192078 929.908997,451.180908 
	C965.975708,451.028595 1002.043213,451.043823 1038.582764,451.015259 
	C1037.166992,451.322784 1035.279297,451.900146 1033.390747,451.903168 
	C999.141418,451.957611 964.891968,451.918457 930.642700,451.991394 
	C928.038269,451.996948 925.435364,452.692596 922.404541,453.070435 
z"/>
<path fill="#EF4E84" opacity="1.000000" stroke="none" 
	d="
M822.148315,513.838135 
	C821.809082,489.555542 821.897949,465.119720 821.985229,440.683929 
	C822.017761,431.580170 823.374939,422.811890 828.759766,414.735352 
	C822.547729,428.854858 822.950500,444.122345 823.083313,459.391022 
	C823.223511,475.519409 823.132935,491.650024 823.090698,507.779510 
	C823.085510,509.748413 822.755310,511.716492 822.148315,513.838135 
z"/>
<path fill="#EF4E84" opacity="1.000000" stroke="none" 
	d="
M1039.384277,450.825134 
	C1039.427734,432.587952 1036.061157,414.981384 1027.069092,398.285980 
	C1030.524048,405.634674 1035.281982,413.053314 1037.138428,421.138153 
	C1039.323730,430.655731 1038.994019,440.750763 1039.384277,450.825134 
z"/>
<path fill="#EF4E84" opacity="1.000000" stroke="none" 
	d="
M920.071716,472.591980 
	C914.971558,468.112549 913.775757,456.324677 921.727051,453.061462 
	C915.529541,458.801666 916.872192,465.400970 920.071716,472.591980 
z"/>
<path fill="#EF4E84" opacity="1.000000" stroke="none" 
	d="
M928.931396,482.686218 
	C926.737000,480.869965 924.429504,478.738342 922.085449,476.265076 
	C924.305359,478.072601 926.561829,480.221741 928.931396,482.686218 
z"/>
<path fill="#EF4E84" opacity="1.000000" stroke="none" 
	d="
M987.871216,366.668396 
	C984.571106,366.134277 981.060791,365.308533 977.227539,364.294525 
	C980.490051,364.863098 984.075500,365.619934 987.871216,366.668396 
z"/>
<path fill="#EF4E84" opacity="1.000000" stroke="none" 
	d="
M1027.119019,397.628571 
	C1025.763306,396.191895 1024.440552,394.398102 1023.083130,392.262268 
	C1024.416260,393.703979 1025.784180,395.487732 1027.119019,397.628571 
z"/>
<path fill="#EF4E84" opacity="1.000000" stroke="none" 
	d="
M1013.988037,381.650696 
	C1012.475159,380.823669 1010.883789,379.672821 1009.148438,378.219299 
	C1010.639587,379.053375 1012.274536,380.190125 1013.988037,381.650696 
z"/>
<path fill="#EF4E84" opacity="1.000000" stroke="none" 
	d="
M1022.114807,390.622650 
	C1021.113037,389.841339 1020.110474,388.716125 1019.065430,387.262115 
	C1020.053223,388.048462 1021.083618,389.163605 1022.114807,390.622650 
z"/>
<path fill="#EF4E84" opacity="1.000000" stroke="none" 
	d="
M992.972290,368.613831 
	C991.585022,368.416870 990.037292,367.903137 988.229065,367.157776 
	C989.583008,367.383087 991.197388,367.840088 992.972290,368.613831 
z"/>
<path fill="#EF4E84" opacity="1.000000" stroke="none" 
	d="
M1004.877258,374.708313 
	C1003.848694,374.462128 1002.647766,373.919678 1001.216431,373.135223 
	C1002.225708,373.399506 1003.465271,373.905762 1004.877258,374.708313 
z"/>
<path fill="#EF4E84" opacity="1.000000" stroke="none" 
	d="
M1008.982788,377.647827 
	C1008.171082,377.455048 1007.259644,376.942474 1006.183105,376.152466 
	C1006.973083,376.359375 1007.928040,376.843719 1008.982788,377.647827 
z"/>
<path fill="#EF4E84" opacity="1.000000" stroke="none" 
	d="
M933.201050,485.837463 
	C932.411316,485.575928 931.370361,485.063263 930.165649,484.236725 
	C930.984558,484.477386 931.967285,485.031860 933.201050,485.837463 
z"/>
<path fill="#EF4E84" opacity="1.000000" stroke="none" 
	d="
M922.108093,475.647522 
	C921.407349,475.181641 920.728027,474.386688 920.043274,473.264343 
	C920.735046,473.730804 921.432312,474.524658 922.108093,475.647522 
z"/>
<path fill="#EF4E84" opacity="1.000000" stroke="none" 
	d="
M829.218872,414.271240 
	C829.381836,413.780090 829.744202,413.049866 830.375732,412.178955 
	C830.236023,412.702911 829.827148,413.367523 829.218872,414.271240 
z"/>
<path fill="#EF4E84" opacity="1.000000" stroke="none" 
	d="
M995.826294,369.738098 
	C995.195984,369.784424 994.333130,369.584229 993.229797,369.144531 
	C993.857483,369.100525 994.725586,369.296021 995.826294,369.738098 
z"/>
<path fill="#EF4E84" opacity="1.000000" stroke="none" 
	d="
M999.898560,371.719360 
	C999.476135,371.812744 998.908813,371.623657 998.151733,371.192505 
	C998.559265,371.112579 999.156433,371.274719 999.898560,371.719360 
z"/>
<path fill="#EF4E84" opacity="1.000000" stroke="none" 
	d="
M997.888611,370.732544 
	C997.486267,370.817505 996.906921,370.638000 996.149780,370.202911 
	C996.551819,370.120911 997.131714,370.294495 997.888611,370.732544 
z"/>
<path fill="#EF4E84" opacity="1.000000" stroke="none" 
	d="
M831.111694,411.467529 
	C831.081055,411.416748 831.074341,411.344696 831.088989,411.367920 
	C831.103699,411.391174 831.142273,411.518341 831.111694,411.467529 
z"/>
<path fill="#EF4E84" opacity="1.000000" stroke="none" 
	d="
M1016.036499,383.694153 
	C1015.765564,383.805756 1015.462463,383.632111 1015.081055,383.199158 
	C1015.336609,383.096252 1015.670410,383.252594 1016.036499,383.694153 
z"/>
<path fill="#EF4E84" opacity="1.000000" stroke="none" 
	d="
M1006.078857,375.656525 
	C1005.823608,375.780273 1005.508423,375.618286 1005.084961,375.206970 
	C1005.324097,375.095367 1005.671509,375.233063 1006.078857,375.656525 
z"/>
<path fill="#EF4E84" opacity="1.000000" stroke="none" 
	d="
M1023.074341,391.672424 
	C1022.798218,391.779449 1022.512146,391.584290 1022.131836,391.141541 
	C1022.379883,391.052673 1022.722107,391.211487 1023.074341,391.672424 
z"/>
<path fill="#EF4E84" opacity="1.000000" stroke="none" 
	d="
M1001.063110,372.678101 
	C1000.829712,372.790649 1000.504700,372.633270 1000.081482,372.217529 
	C1000.312683,372.108826 1000.642029,372.258484 1001.063110,372.678101 
z"/>
<path fill="#EF4E84" opacity="1.000000" stroke="none" 
	d="
M1019.027832,386.700287 
	C1018.764954,386.808624 1018.462219,386.632568 1018.088074,386.194702 
	C1018.340454,386.093903 1018.664185,386.254913 1019.027832,386.700287 
z"/>
<path fill="#EF4E84" opacity="1.000000" stroke="none" 
	d="
M1015.011841,382.714081 
	C1014.762024,382.815002 1014.464111,382.632812 1014.090515,382.190796 
	C1014.331116,382.097595 1014.647400,382.264282 1015.011841,382.714081 
z"/>
<path fill="#EF4E84" opacity="1.000000" stroke="none" 
	d="
M930.020630,483.700897 
	C929.767822,483.812378 929.455994,483.646393 929.067017,483.218628 
	C929.313782,483.112396 929.637695,483.267914 930.020630,483.700897 
z"/>
<path fill="#EF4E84" opacity="1.000000" stroke="none" 
	d="
M1018.032593,385.699280 
	C1017.765686,385.807739 1017.464783,385.630768 1017.084778,385.195496 
	C1017.336670,385.096069 1017.667664,385.254974 1018.032593,385.699280 
z"/>
<path fill="#EF4E84" opacity="1.000000" stroke="none" 
	d="
M1017.017212,384.709595 
	C1016.763428,384.813477 1016.463562,384.633606 1016.091980,384.192444 
	C1016.337219,384.096069 1016.654175,384.260925 1017.017212,384.709595 
z"/>
<path fill="#1F3B8B" opacity="1.000000" stroke="none" 
	d="
M588.042358,437.050659 
	C577.659302,445.340179 567.562378,453.420074 557.328979,461.609222 
	C558.775085,463.746399 559.967712,465.509033 561.805908,468.225708 
	C540.902344,463.470978 522.327820,455.300415 503.636444,447.187836 
	C502.816345,448.873444 502.111542,450.322021 501.406738,451.770630 
	C500.856567,451.820496 500.306366,451.870331 499.756165,451.920197 
	C496.222473,432.430450 492.688782,412.940674 489.152039,393.434021 
	C487.510468,393.621887 485.544495,393.846863 482.080780,394.243225 
	C497.050781,379.013092 512.865234,366.855957 529.087585,354.906097 
	C528.115112,353.195526 527.255249,351.683075 526.395386,350.170624 
	C526.617126,349.700745 526.838806,349.230896 527.060547,348.761017 
	C545.389648,355.504150 563.718750,362.247314 582.409241,369.123383 
	C583.165955,367.720306 584.067261,366.049164 585.626709,363.157715 
	C587.317566,370.564514 588.867981,376.831329 590.157654,383.151367 
	C591.487488,389.668396 592.659851,396.221588 593.723206,402.787781 
	C594.780640,409.317719 595.616882,415.883453 596.573730,422.600006 
	C599.234924,422.419312 601.301819,422.278992 604.447266,422.065430 
	C598.585754,427.438507 593.457092,432.139771 588.042358,437.050659 
z"/>
<path fill="#1F3B8B" opacity="1.000000" stroke="none" 
	d="
M953.999939,428.231995 
	C944.887329,427.842407 936.198364,428.025757 927.684875,426.891815 
	C920.130981,425.885620 917.147278,420.532349 918.752380,413.127167 
	C921.929504,398.470215 932.208618,390.938477 945.833984,387.830841 
	C959.323059,384.754303 972.964233,385.070862 985.738464,391.191925 
	C996.418396,396.309509 1003.625732,404.278198 1003.984131,416.939606 
	C1004.115906,421.596436 1001.921021,424.746063 997.615723,425.870575 
	C993.155762,427.035553 988.523682,427.973907 983.936707,428.130768 
	C974.134827,428.465973 964.313354,428.232483 953.999939,428.231995 
z"/>
</svg>