<svg version="1.1" id="Layer_1" xmlns="http://www.w3.org/2000/svg" xmlns:xlink="http://www.w3.org/1999/xlink" x="0px" y="0px"
	 width="100%" viewBox="0 0 1024 592" enable-background="new 0 0 1024 592" xml:space="preserve">
<path fill="#000000" opacity="1.000000" stroke="none" 
	d="
M629.482300,326.023987 
	C653.139771,330.870270 668.099487,344.547241 674.402344,367.488434 
	C675.950195,373.122345 676.468384,378.917664 676.885925,384.727356 
	C677.221985,389.403809 675.308228,391.182526 670.492615,391.150146 
	C646.349915,390.987793 622.205322,391.120575 598.061584,391.081970 
	C594.130920,391.075684 590.275696,390.946472 588.121643,395.121704 
	C586.053955,399.129639 587.908203,402.610657 589.871948,405.903717 
	C593.141479,411.386383 597.917114,415.511261 603.902588,417.395264 
	C619.432983,422.283722 634.525024,421.934052 647.747375,411.021332 
	C650.697937,408.586121 653.486145,407.423218 657.170044,407.666168 
	C661.946899,407.981201 666.783081,407.204926 671.288879,408.129486 
	C672.497131,409.819794 671.667053,410.966705 671.006714,412.110077 
	C662.698059,426.495972 649.845276,434.153351 633.894104,437.369751 
	C621.543396,439.860168 609.416138,439.107849 597.535706,435.084656 
	C576.475220,427.952789 563.578247,408.170074 562.504517,387.938019 
	C561.633179,371.517151 564.295166,356.462128 575.386414,343.802277 
	C585.708557,332.020355 599.070801,326.400208 614.561096,325.737885 
	C619.374023,325.532074 624.210693,325.882538 629.482300,326.023987 
M647.179626,355.455322 
	C644.803284,351.444122 641.295593,348.582428 637.153320,346.761261 
	C625.652893,341.705078 613.890381,341.596344 602.254456,346.182831 
	C595.383057,348.891266 590.891846,354.107910 588.830750,361.288025 
	C587.239868,366.829803 589.405396,370.757141 595.017761,372.257721 
	C596.604309,372.681976 598.292542,372.907440 599.935059,372.912201 
	C612.567383,372.948608 625.200256,372.958099 637.831848,372.842804 
	C639.954102,372.823486 642.120300,372.338379 644.179260,371.759369 
	C648.476807,370.550873 650.375732,367.615265 649.893677,363.137634 
	C649.621826,360.612518 648.784546,358.294708 647.179626,355.455322 
z"/>
<path fill="#000000" opacity="1.000000" stroke="none" 
	d="
M687.694580,327.888123 
	C692.613098,327.814484 697.123047,328.007477 701.600769,327.711914 
	C705.669800,327.443298 707.569275,329.280396 708.836243,332.940857 
	C714.548157,349.443054 720.468628,365.872925 726.261658,382.347260 
	C727.211548,385.048492 728.109497,387.730103 730.602722,389.437866 
	C734.942200,392.410217 739.840454,390.341766 742.195007,384.173553 
	C745.575745,375.316803 748.625427,366.334259 751.874451,357.426575 
	C754.953247,348.985565 758.227783,340.613647 761.165649,332.124664 
	C762.285034,328.890320 764.199341,327.652100 767.462463,327.750214 
	C771.289124,327.865265 775.123535,327.706665 778.951782,327.791840 
	C784.042419,327.905090 784.605591,328.674683 782.919434,333.458282 
	C778.440674,346.164551 773.894104,358.846954 769.356323,371.532349 
	C762.297546,391.265015 755.127502,410.958801 748.235291,430.749390 
	C746.812988,434.833313 744.825928,436.786407 740.341736,436.380554 
	C736.377075,436.021729 732.338013,436.068787 728.362732,436.359375 
	C724.273560,436.658417 722.323120,434.710938 721.056458,431.132599 
	C709.568176,398.677795 697.992981,366.253723 686.513123,333.795959 
	C685.830933,331.867249 683.749390,329.454041 687.694580,327.888123 
z"/>
<path fill="#000000" opacity="1.000000" stroke="none" 
	d="
M520.106689,333.953674 
	C528.089722,329.751678 536.260620,327.857574 544.899109,327.719055 
	C548.639526,327.659088 550.468384,329.086426 550.312988,333.012939 
	C550.148438,337.170837 550.200989,341.342133 550.300781,345.504181 
	C550.376465,348.661285 548.875671,349.836731 545.841187,350.203735 
	C529.837585,352.139282 520.039001,362.137970 519.326965,378.715607 
	C518.612854,395.341858 519.040161,412.017456 518.982056,428.671448 
	C518.955750,436.220184 518.883057,436.316071 511.583099,436.305115 
	C507.751892,436.299377 503.920227,436.233765 500.089691,436.277649 
	C497.664917,436.305420 496.144440,435.244720 496.188171,432.802277 
	C496.581299,410.850372 494.403687,388.811829 497.542145,366.962769 
	C499.598053,352.650085 507.599640,341.846680 520.106689,333.953674 
z"/>
</svg>