<svg version="1.1" id="Layer_1" xmlns="http://www.w3.org/2000/svg" xmlns:xlink="http://www.w3.org/1999/xlink" x="0px" y="0px"
	 width="100%" viewBox="0 0 480 288" enable-background="new 0 0 480 288" xml:space="preserve">
<path fill="#000000" opacity="1.000000" stroke="none" 
	d="
M229.927826,193.046539 
	C238.568604,202.806000 244.617584,203.040131 253.448303,194.113174 
	C254.656326,192.891998 255.768738,192.151810 257.335388,193.107986 
	C259.988892,194.727478 263.133881,195.649185 265.384216,198.674850 
	C259.960327,206.488602 253.342453,212.485657 243.387100,213.179581 
	C232.729691,213.922440 225.344360,208.081451 219.769333,199.845581 
	C210.612137,186.317841 206.973526,170.705963 203.680313,155.018555 
	C203.104004,152.273270 202.558548,149.521515 201.748550,145.543610 
	C196.193619,152.213348 190.971176,157.901443 190.350937,166.117554 
	C189.763626,173.897385 193.733505,178.604172 201.882996,180.478668 
	C206.191544,181.469696 207.423920,184.572479 205.953888,190.388260 
	C204.929474,194.441132 202.171722,193.072449 199.590408,192.620331 
	C179.560165,189.111954 172.325912,170.299728 182.633728,151.864685 
	C191.267181,136.424149 204.008926,124.744240 217.160172,113.396904 
	C217.642029,112.981148 218.108566,112.547600 219.338989,111.442947 
	C210.742035,109.877266 202.932343,108.694374 195.374573,112.176498 
	C189.672867,114.803474 186.331146,120.963142 188.719727,126.738129 
	C191.397491,133.212326 188.013641,134.996002 183.478699,136.941498 
	C182.572525,137.330246 181.653061,137.688004 180.804382,138.033707 
	C172.352219,129.041809 173.687637,105.845238 192.782791,99.814102 
	C204.147461,96.224602 215.529480,97.943237 226.821671,100.302757 
	C236.930862,102.415100 246.712112,105.706024 256.437378,109.361565 
	C256.466217,101.340111 249.409805,90.648079 242.433212,87.923271 
	C237.304611,85.920227 231.825287,87.520195 227.623703,92.247650 
	C224.661621,95.580437 221.340149,95.095963 216.550354,90.567207 
	C213.306976,87.500580 216.662918,85.773201 218.193695,84.085182 
	C231.773834,69.110130 250.161362,71.353645 261.383698,89.332588 
	C269.451538,102.257790 273.361908,116.686241 276.302155,131.447372 
	C276.915771,134.528137 277.658203,137.583221 278.618134,141.893295 
	C284.477051,134.649353 289.719177,128.341537 289.679962,119.420158 
	C289.651978,113.056488 285.320618,108.557129 278.538666,107.319115 
	C274.111816,106.511009 273.107330,104.217346 274.147400,97.821182 
	C274.891815,93.243034 278.082275,94.611183 280.679321,95.170097 
	C299.375397,99.193649 307.158936,114.342155 299.325989,131.882202 
	C292.417969,147.350937 280.398956,158.681122 267.857574,169.512131 
	C266.093292,171.035797 264.361084,172.597214 262.638123,174.167603 
	C262.156372,174.606674 261.760773,175.140228 260.653137,176.388107 
	C269.623688,178.011505 277.836426,179.193954 285.740723,174.867584 
	C291.254456,171.849655 293.129730,165.742310 291.068390,158.725266 
	C289.938416,154.878693 295.487427,148.706772 299.388580,149.541885 
	C301.122589,149.913101 301.503448,151.597412 302.008514,152.945572 
	C307.716888,168.182724 301.605469,184.829712 283.071838,189.239441 
	C269.999146,192.349823 257.257019,189.315842 244.711426,185.890549 
	C237.537537,183.931885 230.576477,181.193741 223.076324,178.656616 
	C224.648987,183.942932 226.699692,188.568008 229.927826,193.046539 
M225.386093,122.905914 
	C221.696991,126.016441 217.967819,129.081390 214.344696,132.266953 
	C213.337402,133.152588 211.724457,133.822174 212.576782,135.865341 
	C214.973343,141.610367 215.049500,147.879074 215.950165,153.892517 
	C216.860504,159.970551 218.791748,163.426605 225.144897,165.422562 
	C232.377029,167.694656 239.298401,171.057983 245.372406,172.667572 
	C252.859695,164.569199 261.953278,159.501129 269.021301,151.866653 
	C266.450470,151.408524 266.647797,149.503052 266.376282,147.938644 
	C265.439209,142.539856 264.416473,137.149414 263.712463,131.718704 
	C263.126221,127.196045 261.826782,124.380844 256.573975,122.891510 
	C248.961258,120.733078 241.722137,117.170441 233.964188,114.912933 
	C232.139420,118.529724 228.736816,120.161438 225.386093,122.905914 
z"/>
</svg>