<svg version="1.1" id="Layer_1" xmlns="http://www.w3.org/2000/svg" xmlns:xlink="http://www.w3.org/1999/xlink" x="0px" y="0px"
	 width="100%" viewBox="0 0 487 283" enable-background="new 0 0 487 283" xml:space="preserve">
<path fill="#000000" opacity="1.000000" stroke="none" 
	d="
M274.000000,284.000000 
	C182.666687,284.000000 91.833389,284.000000 1.000061,284.000000 
	C1.000041,189.666718 1.000041,95.333443 1.000020,1.000124 
	C163.333237,1.000083 325.666473,1.000083 487.999756,1.000041 
	C487.999847,95.333199 487.999847,189.666397 487.999939,283.999817 
	C416.833344,284.000000 345.666656,284.000000 274.000000,284.000000 
M232.719894,188.716339 
	C229.969437,183.544022 227.218994,178.371704 223.953934,172.231659 
	C233.102844,175.361526 240.651779,178.367416 248.438293,180.509796 
	C260.484344,183.824142 272.660675,186.495743 285.346619,184.026245 
	C303.556488,180.481476 312.454254,160.117615 302.379517,144.430267 
	C299.281525,146.188461 296.179657,147.948837 293.176819,149.653030 
	C297.904419,162.343781 294.187927,170.966599 282.912720,172.624008 
	C276.359619,173.587296 269.549072,172.799255 262.854370,172.799255 
	C262.738037,172.204208 262.621674,171.609161 262.505310,171.014114 
	C266.587677,167.484344 270.726898,164.017899 274.741608,160.412796 
	C286.206238,150.117813 296.959198,139.185867 302.752533,124.528168 
	C310.803741,104.157806 294.822327,89.938049 278.089050,90.304787 
	C278.089050,93.912292 278.089050,97.511894 278.089050,101.124374 
	C279.163818,101.329803 279.975494,101.505951 280.794250,101.638237 
	C290.346954,103.181580 295.009674,109.799187 292.768860,119.159569 
	C290.990265,126.589264 286.409851,132.412811 281.155029,138.337067 
	C280.016357,132.677582 279.067352,127.617104 277.973450,122.588150 
	C274.664276,107.375481 270.331512,92.502853 260.564697,79.999931 
	C248.700394,64.811897 227.934448,66.862099 218.361053,84.214569 
	C221.403595,86.088097 224.461807,87.971283 227.662064,89.941933 
	C228.334549,89.123291 228.861053,88.505760 229.362411,87.868454 
	C235.612885,79.923401 243.831848,79.293571 251.271988,86.144745 
	C256.754425,91.193199 258.635406,98.043610 261.736877,105.722649 
	C255.950485,103.688820 251.356384,101.954468 246.686859,100.454918 
	C231.875961,95.698601 216.888992,91.862328 201.131104,94.097855 
	C179.528885,97.162506 174.929688,118.596008 183.540771,132.852188 
	C186.684723,131.180176 189.839127,129.502594 193.074280,127.782066 
	C192.395599,126.071442 191.746750,124.732056 191.325455,123.324570 
	C189.088699,115.852104 192.162628,108.850830 199.192642,106.065575 
	C207.084656,102.938805 215.022690,104.410881 223.698425,106.073990 
	C218.482986,110.667618 213.822632,114.623756 209.328400,118.760384 
	C198.590225,128.644135 188.857300,139.421310 183.450317,153.200058 
	C176.598236,170.661438 187.493134,187.809860 208.194595,187.239304 
	C208.422668,183.637421 208.651611,180.021561 208.878082,176.444916 
	C193.800720,174.325287 188.545105,164.718307 195.528122,152.214432 
	C198.003128,147.782623 201.364258,143.845688 204.973007,138.764603 
	C205.475204,141.172424 205.747421,142.391190 205.982376,143.617111 
	C209.244110,160.634537 212.742325,177.583801 221.916306,192.669312 
	C226.090851,199.533859 231.402771,205.210724 239.607788,207.030930 
	C250.792816,209.512207 260.374329,204.720718 267.953369,193.066147 
	C264.815002,191.259262 261.688843,189.459396 258.629272,187.697876 
	C248.501511,198.463654 241.976959,198.820419 232.719894,188.716339 
z"/>
<path fill="#F9F9F9" opacity="1.000000" stroke="none" 
	d="
M232.926392,189.016479 
	C241.976959,198.820419 248.501511,198.463654 258.629272,187.697876 
	C261.688843,189.459396 264.815002,191.259262 267.953369,193.066147 
	C260.374329,204.720718 250.792816,209.512207 239.607788,207.030930 
	C231.402771,205.210724 226.090851,199.533859 221.916306,192.669312 
	C212.742325,177.583801 209.244110,160.634537 205.982376,143.617111 
	C205.747421,142.391190 205.475204,141.172424 204.973007,138.764603 
	C201.364258,143.845688 198.003128,147.782623 195.528122,152.214432 
	C188.545105,164.718307 193.800720,174.325287 208.878082,176.444916 
	C208.651611,180.021561 208.422668,183.637421 208.194595,187.239304 
	C187.493134,187.809860 176.598236,170.661438 183.450317,153.200058 
	C188.857300,139.421310 198.590225,128.644135 209.328400,118.760384 
	C213.822632,114.623756 218.482986,110.667618 223.698425,106.073990 
	C215.022690,104.410881 207.084656,102.938805 199.192642,106.065575 
	C192.162628,108.850830 189.088699,115.852104 191.325455,123.324570 
	C191.746750,124.732056 192.395599,126.071442 193.074280,127.782066 
	C189.839127,129.502594 186.684723,131.180176 183.540771,132.852188 
	C174.929688,118.596008 179.528885,97.162506 201.131104,94.097855 
	C216.888992,91.862328 231.875961,95.698601 246.686859,100.454918 
	C251.356384,101.954468 255.950485,103.688820 261.736877,105.722649 
	C258.635406,98.043610 256.754425,91.193199 251.271988,86.144745 
	C243.831848,79.293571 235.612885,79.923401 229.362411,87.868454 
	C228.861053,88.505760 228.334549,89.123291 227.662064,89.941933 
	C224.461807,87.971283 221.403595,86.088097 218.361053,84.214569 
	C227.934448,66.862099 248.700394,64.811897 260.564697,79.999931 
	C270.331512,92.502853 274.664276,107.375481 277.973450,122.588150 
	C279.067352,127.617104 280.016357,132.677582 281.155029,138.337067 
	C286.409851,132.412811 290.990265,126.589264 292.768860,119.159569 
	C295.009674,109.799187 290.346954,103.181580 280.794250,101.638237 
	C279.975494,101.505951 279.163818,101.329803 278.089050,101.124374 
	C278.089050,97.511894 278.089050,93.912292 278.089050,90.304787 
	C294.822327,89.938049 310.803741,104.157806 302.752533,124.528168 
	C296.959198,139.185867 286.206238,150.117813 274.741608,160.412796 
	C270.726898,164.017899 266.587677,167.484344 262.505310,171.014114 
	C262.621674,171.609161 262.738037,172.204208 262.854370,172.799255 
	C269.549072,172.799255 276.359619,173.587296 282.912720,172.624008 
	C294.187927,170.966599 297.904419,162.343781 293.176819,149.653030 
	C296.179657,147.948837 299.281525,146.188461 302.379517,144.430267 
	C312.454254,160.117615 303.556488,180.481476 285.346619,184.026245 
	C272.660675,186.495743 260.484344,183.824142 248.438293,180.509796 
	C240.651779,178.367416 233.102844,175.361526 223.953934,172.231659 
	C227.218994,178.371704 229.969437,183.544022 232.926392,189.016479 
M239.261063,165.274612 
	C243.311478,166.611740 247.361893,167.948853 250.147736,168.868515 
	C251.499359,166.566895 252.099579,164.591156 253.421463,163.455170 
	C259.933807,157.858612 266.637451,152.484711 272.388367,147.759567 
	C271.212189,145.301926 270.180511,143.927704 269.890869,142.411697 
	C268.251495,133.830704 266.789917,125.215752 265.501556,117.933571 
	C262.887787,117.814163 261.240112,118.108498 259.876495,117.616188 
	C251.482803,114.585777 243.153229,111.377777 236.176025,108.746857 
	C234.611893,111.194847 234.040390,112.788918 232.919891,113.727783 
	C226.340469,119.240654 219.632919,124.600609 214.203278,129.009521 
	C218.237671,140.082596 217.732819,150.784088 221.122955,159.730698 
	C222.844513,159.730698 224.363083,159.352325 225.578857,159.798706 
	C229.943359,161.401123 234.205505,163.282318 239.261063,165.274612 
z"/>
<path fill="#030303" opacity="1.000000" stroke="none" 
	d="
M238.883698,165.166382 
	C234.205505,163.282318 229.943359,161.401123 225.578857,159.798706 
	C224.363083,159.352325 222.844513,159.730698 221.122955,159.730698 
	C217.732819,150.784088 218.237671,140.082596 214.203278,129.009521 
	C219.632919,124.600609 226.340469,119.240654 232.919891,113.727783 
	C234.040390,112.788918 234.611893,111.194847 236.176025,108.746857 
	C243.153229,111.377777 251.482803,114.585777 259.876495,117.616188 
	C261.240112,118.108498 262.887787,117.814163 265.501556,117.933571 
	C266.789917,125.215752 268.251495,133.830704 269.890869,142.411697 
	C270.180511,143.927704 271.212189,145.301926 272.388367,147.759567 
	C266.637451,152.484711 259.933807,157.858612 253.421463,163.455170 
	C252.099579,164.591156 251.499359,166.566895 250.147736,168.868515 
	C247.361893,167.948853 243.311478,166.611740 238.883698,165.166382 
z"/>
</svg>