<svg version="1.1" id="Layer_1" xmlns="http://www.w3.org/2000/svg" xmlns:xlink="http://www.w3.org/1999/xlink" x="0px" y="0px"
	 width="100%" viewBox="0 0 496 288" enable-background="new 0 0 496 288" xml:space="preserve">
<path fill="#000000" opacity="1.000000" stroke="none" 
	d="
M222.794800,197.068832 
	C214.484879,181.963409 211.424957,165.594971 208.072906,149.242142 
	C199.414810,154.293152 194.268768,167.701691 196.924774,173.883591 
	C199.147278,179.056534 203.030365,181.514526 208.250259,182.555344 
	C212.229218,183.348724 213.268555,186.265625 212.058762,192.251785 
	C211.219894,196.402527 208.442307,195.282639 205.864822,194.697067 
	C192.261017,191.606537 186.110321,185.703171 184.107513,173.309357 
	C182.967209,166.252838 185.404572,159.828873 188.761383,153.776489 
	C195.890488,140.922638 205.786804,130.414948 216.885757,120.941841 
	C219.386307,118.807571 221.774323,116.541458 224.300812,114.257690 
	C218.106735,110.677872 204.390030,111.467712 199.293793,115.457130 
	C194.465744,119.236603 193.058548,124.324066 195.087662,130.663681 
	C196.595993,135.376175 195.472107,136.894836 188.698624,139.303818 
	C184.183182,140.909729 184.074158,136.946365 183.435364,134.643417 
	C178.252213,115.957489 187.435333,100.433609 210.931763,99.864563 
	C225.934372,99.501221 240.220596,103.564995 254.254669,108.496979 
	C257.024872,109.470505 259.800110,110.429749 263.433258,111.695206 
	C260.778381,103.547935 258.252380,96.433685 251.650070,91.684830 
	C245.788895,87.469070 239.149033,88.411812 233.718018,94.080994 
	C232.547195,95.303154 231.822281,97.769547 229.482773,96.663498 
	C226.504059,95.255249 223.216141,94.004524 221.374115,91.103508 
	C220.474197,89.686249 222.136444,88.381081 223.061798,87.254623 
	C236.267410,71.179291 255.810684,72.920013 267.324615,91.218948 
	C275.440308,104.117157 279.311096,118.537560 282.308594,133.271988 
	C282.956757,136.458221 283.162231,139.789963 285.066681,143.467575 
	C290.004944,137.349899 294.490967,131.613724 295.585358,124.117805 
	C296.726440,116.302094 292.272461,110.733025 284.240234,109.301453 
	C280.143646,108.571327 279.066315,105.714592 280.218781,99.509697 
	C280.949463,95.575562 283.747711,96.580879 286.028229,96.999992 
	C304.633881,100.419289 312.946838,115.788956 305.677124,133.277283 
	C300.770111,145.081848 292.322815,154.297928 283.332092,163.021240 
	C278.101532,168.096252 272.472748,172.760818 266.359222,178.200836 
	C274.149811,180.125809 281.160492,180.623886 288.100677,178.482025 
	C295.678284,176.143433 299.865723,170.105621 297.294006,162.721588 
	C295.034912,156.235092 298.127838,154.445419 302.586487,152.410980 
	C303.482513,152.002136 304.384491,151.606339 305.218079,151.233841 
	C312.826416,158.196335 311.764709,178.739883 299.751526,186.573273 
	C290.421539,192.657059 280.399933,192.994720 269.979218,191.861511 
	C256.144104,190.357040 243.139923,185.709167 229.043762,180.516205 
	C232.194839,189.866852 235.463394,197.792099 244.291412,201.777420 
	C248.956970,203.883621 254.276535,201.983582 258.851227,196.904800 
	C259.922058,195.715942 260.739807,193.692627 262.787262,194.864487 
	C265.626007,196.489258 269.099792,197.320587 270.926788,200.315369 
	C271.602264,201.422592 270.239899,202.386002 269.561768,203.297943 
	C257.691315,219.261383 238.660950,219.281281 226.705566,203.302261 
	C225.313919,201.442261 224.204239,199.371338 222.794800,197.068832 
M245.508255,172.844772 
	C247.865158,173.606583 250.222046,174.368408 251.287582,174.712814 
	C258.591675,166.671204 267.694794,161.843292 274.374390,154.333405 
	C272.349060,152.443512 272.164001,150.034348 271.940430,147.802475 
	C271.475952,143.164856 270.535797,138.620697 269.821686,134.033447 
	C269.057281,129.123444 267.428955,126.208969 261.954071,124.654915 
	C254.523193,122.545647 247.420059,119.172829 240.461273,117.065536 
	C233.301208,124.517120 224.516846,129.280426 218.285004,136.281357 
	C221.173981,145.986786 221.248734,155.921707 224.203171,164.944550 
	C231.595764,166.519836 237.708038,170.869843 245.508255,172.844772 
z"/>
</svg>